<svg width="1336" height="1252" viewBox="0 0 1336 1252" fill="none" xmlns="http://www.w3.org/2000/svg">
<path d="M758.749 53.3504C1077.48 82.815 1312.16 363.062 1282.92 679.299C1253.69 995.537 971.609 1228.01 652.881 1198.55C550.2 1189.06 456.242 1153.53 377.021 1099.17C387.748 1106.34 398.747 1113.16 410.002 1119.6C480.209 1161.28 560.551 1188.39 647.259 1196.41C959.447 1225.27 1235.92 995.587 1264.78 683.398C1293.64 371.209 1063.96 94.7336 751.77 65.8735C482.061 40.9403 239.008 208.979 159.248 456.474C145.038 497.609 135.502 541.076 131.32 586.315C124.845 656.356 131.765 724.57 149.984 788.461C129.672 720.431 121.781 647.526 128.707 572.599C157.942 256.361 440.021 23.8858 758.749 53.3504Z" fill="url(#paint0_linear_2643_63)"/>
<path d="M731.01 385.424C770.109 323.119 836.516 253.291 883.927 291.703C923.188 323.512 916.982 369.359 889.677 412.329C909.038 400.231 927.518 397.838 943.833 409.158C1019.16 461.428 886.779 573.923 821.576 612.259C862.328 609.812 943.833 612.259 963.394 667.316C998.249 765.422 907.155 897.333 883.927 921.803C821.575 987.486 686.366 1065.26 629.632 980.531C601.219 938.096 636.026 807.589 710.895 719.319C734.735 645.33 778.25 548.731 824.687 481.607C819.255 485.804 813.723 489.809 808.127 493.577C759.549 526.292 725.809 603.283 723.77 625.715V592.68C733.551 566.171 754.335 521.969 803.237 485.753C864.365 440.484 933.828 364.627 880.259 308.829C826.69 253.033 737.218 374.898 705.431 467.884C686.093 524.454 651.859 614.8 626.712 679.945C651.313 667.652 698.102 654.592 719.15 647.255L690.761 663.646C674.915 669.003 650.266 680.157 620.604 695.736C615.178 709.732 610.346 722.116 606.403 732.159C575.432 827.999 488.289 1021.41 432.798 1079.63C356.999 1159.16 301.983 1178.73 260.416 1159.16C205.671 1126.87 217.627 1001.33 317.877 901.004C391.552 827.273 502.205 746.932 598.882 694.465C606.27 673.23 613.345 652.506 620.117 632.671C648.859 548.48 672.141 480.287 690.761 456.875C653.268 491.541 549.212 569.791 410.792 612.259C375.073 623.217 364.604 625.717 296.959 641.489C167.454 671.684 6.80463 709.359 18.3468 837.382C23.8506 898.415 117.677 925.221 159.122 898.136L135.714 915.686C99.0366 926.289 21.0369 925.472 2.45342 837.382C-20.7754 727.268 127.425 675.201 173.613 663.646L174.542 663.411C379.11 612.257 449.631 594.624 530.604 551.084C612.516 507.038 683.425 460.545 723.77 396.923C726.148 393.173 728.561 389.327 731.01 385.424ZM593.244 710.585C512.138 755.961 406.421 826.706 336.215 901.004C229.852 1013.57 227.814 1118.79 260.416 1139.59C280.385 1159.16 344.775 1165.52 442.579 1034.36C503.014 953.321 552.694 825.934 593.244 710.585ZM898.805 629.495C893.132 631.47 881.838 634.97 859.745 641.14C807.175 655.822 757.968 683.449 721.365 725.076C718.781 732.372 717.179 737.239 716.704 739.02C712.792 753.703 697.281 806.795 691.983 806.795C691.983 793.024 695.59 772.997 702.031 749.118C637.493 836.774 613.777 949.369 645.525 980.531C709.099 1042.93 811.795 967.073 870.478 908.345C929.162 849.617 976.841 738.279 943.833 667.316C935.089 648.519 918.597 636.626 898.805 629.495ZM164.103 894.404C162.545 895.747 160.879 896.988 159.122 898.136L164.103 894.404ZM931.607 417.723C862.773 382.844 768.294 601.476 731.798 696.869C766.26 663.283 842.731 633.255 893.54 627.732C854.24 615.529 804.065 620.416 775.118 626.941C859.475 573.515 1008.87 456.875 931.607 417.723Z" fill="url(#paint1_linear_2643_63)"/>
<defs>
<linearGradient id="paint0_linear_2643_63" x1="758.749" y1="53.3504" x2="652.881" y2="1198.55" gradientUnits="userSpaceOnUse">
<stop stop-color="#B78034"/>
<stop offset="0.504808" stop-color="#E8BC6F"/>
<stop offset="1" stop-color="#B78034"/>
</linearGradient>
<linearGradient id="paint1_linear_2643_63" x1="485.624" y1="280.718" x2="485.624" y2="1166.2" gradientUnits="userSpaceOnUse">
<stop stop-color="#B78034"/>
<stop offset="0.504808" stop-color="#E8BC6F"/>
<stop offset="1" stop-color="#B78034"/>
</linearGradient>
</defs>
</svg>
