<svg width="1352" height="1116" viewBox="0 0 1352 1116" fill="none" xmlns="http://www.w3.org/2000/svg">
<path d="M1310.46 877.47C1308.2 877.47 1306.07 876.937 1304.07 875.872C1302.21 874.808 1300.81 872.811 1299.88 869.883C1299.48 868.685 1299.28 867.021 1299.28 864.891C1299.28 861.963 1299.68 858.702 1300.48 855.109C1301.28 851.515 1302.14 848.453 1303.08 845.924C1302.41 846.191 1301.15 847.389 1299.28 849.518C1297.55 851.515 1295.36 853.977 1292.69 856.905C1290.17 859.701 1287.3 862.562 1284.11 865.49C1281.05 868.286 1277.85 870.615 1274.53 872.478C1271.2 874.342 1267.94 875.273 1264.74 875.273C1262.61 875.273 1260.35 874.674 1257.96 873.477C1255.56 872.146 1253.63 870.482 1252.17 868.485C1250.17 865.823 1249.17 863.095 1249.17 860.299C1249.17 856.706 1250.37 852.979 1252.76 849.119C1255.29 845.259 1258.49 841.532 1262.35 837.938C1266.34 834.212 1270.53 830.884 1274.93 827.956C1279.45 824.894 1283.71 822.365 1287.7 820.369C1291.83 818.239 1295.16 816.842 1297.69 816.176C1300.35 815.378 1303.34 814.978 1306.67 814.978C1308.53 814.978 1310.46 815.244 1312.46 815.777C1314.46 816.176 1316.12 816.908 1317.45 817.973C1318.52 818.505 1319.38 819.238 1320.05 820.169C1320.71 821.101 1321.05 822.099 1321.05 823.164C1321.05 824.229 1320.58 824.562 1319.65 824.162C1318.58 822.565 1317.12 821.567 1315.26 821.168C1313.53 820.635 1311.73 820.369 1309.86 820.369C1304.54 820.369 1298.68 822.099 1292.3 825.56C1285.91 829.021 1280.18 833.08 1275.13 837.739C1273.53 839.07 1271.33 841.399 1268.54 844.727C1265.87 847.921 1263.41 851.448 1261.15 855.308C1258.89 859.168 1257.76 862.695 1257.76 865.89C1257.76 867.62 1258.22 869.151 1259.15 870.482C1259.69 871.413 1260.55 871.879 1261.75 871.879C1263.61 871.879 1266.07 870.881 1269.14 868.885C1272.33 866.888 1275.59 864.492 1278.92 861.697C1282.25 858.769 1285.24 855.974 1287.9 853.312C1290.7 850.65 1292.69 848.72 1293.89 847.522C1294.56 846.856 1295.82 845.525 1297.69 843.529C1299.68 841.399 1301.81 839.136 1304.07 836.74C1306.34 834.345 1308.33 832.282 1310.06 830.551C1311.93 828.821 1313.13 827.956 1313.66 827.956C1314.32 827.956 1315.39 828.155 1316.85 828.555C1318.45 828.821 1319.78 829.287 1320.85 829.952C1321.91 830.618 1322.11 831.483 1321.44 832.548C1317.98 837.606 1315.19 842.93 1313.06 848.52C1311.06 853.977 1309.86 858.303 1309.47 861.497C1309.33 862.03 1309.27 862.562 1309.27 863.095C1309.27 863.494 1309.27 863.96 1309.27 864.492C1309.27 869.816 1311.13 872.478 1314.86 872.478C1316.85 872.478 1319.51 871.28 1322.84 868.885C1326.17 866.489 1329.56 863.627 1333.02 860.299C1336.49 856.972 1339.61 853.777 1342.41 850.716C1345.34 847.522 1347.33 845.126 1348.4 843.529C1348.8 843.129 1349.2 842.93 1349.6 842.93C1350.13 842.93 1350.59 843.196 1350.99 843.728C1351.39 844.128 1351.39 844.66 1350.99 845.326C1349.53 847.721 1347.4 850.583 1344.6 853.911C1341.81 857.238 1338.68 860.566 1335.22 863.893C1331.76 867.221 1328.37 870.082 1325.04 872.478C1323.31 873.809 1321.11 874.941 1318.45 875.872C1315.79 876.937 1313.13 877.47 1310.46 877.47Z" fill="white"/>
<path d="M1255.61 906.22C1250.68 906.22 1245.96 904.423 1241.43 900.829C1237.04 897.368 1232.98 892.71 1229.25 886.853C1225.53 881.13 1222.33 874.874 1219.67 868.086C1217.14 861.165 1215.28 854.443 1214.08 847.921C1209.56 854.31 1205.63 860.166 1202.3 865.49C1199.11 870.815 1196.78 873.876 1195.31 874.674C1194.65 875.074 1193.12 875.739 1190.72 876.671C1188.33 877.603 1186.53 878.069 1185.33 878.069C1184.4 878.069 1184.13 877.603 1184.53 876.671C1184.8 876.139 1185.46 874.475 1186.53 871.68C1187.59 868.751 1188.86 865.158 1190.32 860.898C1191.79 856.639 1193.32 852.18 1194.91 847.522C1196.65 842.863 1198.31 838.471 1199.91 834.345C1198.58 835.809 1197.04 837.672 1195.31 839.935C1193.58 842.065 1191.59 844.793 1189.32 848.121C1188.93 848.786 1188.26 849.119 1187.33 849.119C1186.4 849.119 1185.93 848.72 1185.93 847.921C1185.93 847.122 1186.4 846.191 1187.33 845.126C1189.19 842.863 1191.19 840.268 1193.32 837.339C1195.45 834.411 1197.51 831.549 1199.51 828.754C1201.5 825.959 1203.1 823.696 1204.3 821.966C1202.3 820.901 1201.3 819.504 1201.3 817.773C1201.3 816.709 1201.7 815.91 1202.5 815.378C1203.43 814.712 1204.36 814.712 1205.3 815.378C1205.83 815.644 1206.29 815.777 1206.69 815.777C1208.96 809.787 1211.82 803.332 1215.28 796.411C1218.74 789.356 1222.73 782.701 1227.26 776.445C1231.78 770.056 1236.64 764.865 1241.83 760.872C1247.16 756.879 1252.75 754.883 1258.6 754.883C1259.27 754.883 1259.93 754.949 1260.6 755.082C1261.4 755.082 1262.13 755.149 1262.8 755.282C1263.6 755.415 1264.33 755.681 1264.99 756.081C1265.79 756.48 1266.52 756.813 1267.19 757.079C1270.25 758.809 1271.78 761.338 1271.78 764.666C1271.78 767.062 1271.12 769.724 1269.78 772.652C1268.45 775.447 1266.79 778.242 1264.79 781.037C1262.93 783.832 1261.07 786.361 1259.2 788.624C1257.34 790.887 1255.88 792.617 1254.81 793.815C1248.29 800.47 1241.23 806.526 1233.65 811.983C1226.19 817.441 1219.67 821.301 1214.08 823.563C1211.95 828.089 1209.96 832.747 1208.09 837.539C1206.23 842.198 1204.63 846.523 1203.3 850.516C1202.1 854.376 1201.17 857.371 1200.5 859.501C1202.77 856.706 1204.9 853.911 1206.89 851.115C1209.02 848.187 1211.15 845.326 1213.28 842.53C1213.28 841.998 1213.22 841.466 1213.08 840.933C1213.08 840.401 1213.08 839.868 1213.08 839.336C1213.08 838.537 1213.08 837.805 1213.08 837.14C1213.22 836.341 1213.35 835.609 1213.48 834.944C1213.62 834.145 1213.95 833.346 1214.48 832.548C1215.01 831.749 1215.55 831.35 1216.08 831.35C1216.88 831.35 1217.34 832.148 1217.48 833.746C1217.61 834.145 1217.74 834.611 1217.87 835.143C1218.01 835.676 1218.14 836.208 1218.27 836.74C1220 834.744 1222.13 832.282 1224.66 829.353C1227.32 826.425 1230.05 823.63 1232.85 820.968C1235.64 818.306 1238.17 816.442 1240.44 815.378C1242.3 814.446 1244.16 813.98 1246.03 813.98C1247.89 813.98 1249.42 814.446 1250.62 815.378C1251.82 816.176 1252.41 817.174 1252.41 818.372C1252.41 820.236 1251.02 821.833 1248.22 823.164C1246.09 824.096 1243.23 825.427 1239.64 827.157C1236.18 828.887 1232.58 830.951 1228.86 833.346C1225.13 835.742 1221.93 838.338 1219.27 841.133C1221.27 848.187 1223.2 854.243 1225.06 859.301C1227.06 864.359 1229.39 869.217 1232.05 873.876C1234.85 878.401 1238.51 883.526 1243.03 889.249C1246.09 892.71 1249.22 895.505 1252.41 897.635C1255.61 899.764 1258.47 900.829 1261 900.829C1263.26 900.829 1264.79 900.297 1265.59 899.232C1266.52 898.3 1266.99 897.102 1266.99 895.638C1266.99 893.908 1266.52 891.978 1265.59 889.848C1264.79 887.852 1263.93 886.188 1263 884.857C1262.33 884.058 1262 883.326 1262 882.661C1262 882.261 1262.26 882.062 1262.8 882.062C1263.99 882.062 1265.26 882.594 1266.59 883.659C1267.26 884.457 1268.12 885.988 1269.19 888.251C1270.38 890.647 1270.98 892.71 1270.98 894.44C1270.98 897.102 1270.05 899.298 1268.19 901.029C1266.32 902.892 1264.19 904.223 1261.8 905.022C1259.4 905.82 1257.34 906.22 1255.61 906.22ZM1216.48 816.775C1222.2 814.246 1227.99 810.786 1233.85 806.393C1239.7 802.001 1245.16 796.81 1250.22 790.82C1250.88 790.022 1252.02 788.558 1253.61 786.428C1255.21 784.165 1256.94 781.636 1258.8 778.841C1260.8 776.046 1262.46 773.251 1263.79 770.456C1265.13 767.661 1265.79 765.331 1265.79 763.468C1265.79 762.137 1265.39 761.205 1264.59 760.673C1264.19 760.273 1263.6 760.074 1262.8 760.074C1260.67 760.074 1258.2 761.205 1255.41 763.468C1246.49 770.389 1239.04 778.176 1233.05 786.827C1227.19 795.346 1221.67 805.328 1216.48 816.775Z" fill="white"/>
<path d="M1129.25 885.456C1123.93 885.456 1121.26 883.992 1121.26 881.063C1121.26 878.934 1122.39 876.738 1124.66 874.475C1126.39 872.745 1128.32 871.347 1130.45 870.282C1132.58 869.217 1133.91 868.685 1134.44 868.685C1135.11 868.685 1135.44 868.951 1135.44 869.484C1135.57 870.016 1135.31 870.415 1134.64 870.681C1133.31 871.48 1131.78 872.611 1130.05 874.076C1128.45 875.407 1127.65 876.871 1127.65 878.468C1127.65 880.598 1128.92 881.662 1131.45 881.662C1134.51 881.662 1137.7 880.731 1141.03 878.867C1144.36 877.137 1147.42 874.874 1150.21 872.079C1153.14 869.284 1155.47 866.489 1157.2 863.694C1159.06 860.765 1160 858.236 1160 856.107C1160 854.376 1159.4 852.779 1158.2 851.315C1157 849.851 1154.54 848.121 1150.81 846.124C1148.28 844.66 1145.82 843.129 1143.42 841.532C1141.16 839.935 1139.43 838.005 1138.23 835.742C1137.17 837.606 1135.77 839.868 1134.04 842.53C1132.44 845.059 1130.51 847.721 1128.25 850.517C1127.45 851.315 1126.65 851.714 1125.86 851.714C1125.06 851.714 1124.66 851.382 1124.66 850.716C1124.66 850.317 1124.99 849.651 1125.66 848.72C1129.25 844.46 1131.91 840.534 1133.64 836.94C1135.37 833.346 1136.57 830.618 1137.24 828.754C1137.77 824.894 1139.56 821.234 1142.63 817.773C1145.69 814.313 1149.41 811.318 1153.81 808.789C1158.2 806.127 1162.66 804.064 1167.18 802.6C1171.84 801.136 1175.97 800.404 1179.56 800.404C1183.16 800.404 1186.35 801.069 1189.15 802.4C1191.94 803.731 1193.34 805.861 1193.34 808.789C1193.34 810.386 1192.87 812.117 1191.94 813.98C1190.74 816.509 1188.75 818.772 1185.95 820.768C1185.82 820.901 1185.62 820.968 1185.35 820.968C1184.29 820.968 1183.75 820.502 1183.75 819.57C1183.75 818.905 1184.09 818.239 1184.75 817.574C1185.82 816.642 1186.68 815.511 1187.35 814.18C1188.01 812.849 1188.35 811.584 1188.35 810.386C1188.35 807.99 1186.95 806.793 1184.15 806.793C1181.23 806.793 1177.37 807.591 1172.57 809.188C1167.92 810.786 1163.59 812.849 1159.6 815.378C1155.07 818.306 1151.28 821.5 1148.22 824.961C1145.15 828.422 1143.62 831.483 1143.62 834.145C1143.62 835.476 1144.02 836.74 1144.82 837.938C1145.75 839.003 1147.48 840.268 1150.01 841.732C1151.34 842.53 1153.21 843.595 1155.6 844.926C1158 846.124 1160.06 847.256 1161.79 848.32C1167.25 851.648 1169.98 855.175 1169.98 858.902C1169.98 861.963 1168.65 865.091 1165.99 868.286C1163.32 871.347 1159.86 874.142 1155.6 876.671C1151.48 879.333 1147.09 881.463 1142.43 883.06C1137.77 884.657 1133.38 885.456 1129.25 885.456Z" fill="white"/>
<path d="M1037.95 878.069C1037.02 878.069 1036.75 877.603 1037.15 876.671C1037.55 875.872 1038.28 874.076 1039.35 871.28C1040.41 868.352 1041.61 864.892 1042.94 860.898C1044.4 856.905 1045.87 852.779 1047.33 848.52C1048.8 844.261 1050.13 840.268 1051.33 836.541C1052.66 832.814 1053.72 829.886 1054.52 827.756C1054.79 826.957 1055.05 825.826 1055.32 824.362C1055.58 822.765 1056.12 821.367 1056.92 820.169C1057.85 818.838 1059.38 818.173 1061.51 818.173C1065.5 818.173 1067.5 819.104 1067.5 820.968C1067.5 821.633 1067.16 822.765 1066.5 824.362C1064.9 827.956 1063.17 832.082 1061.31 836.74C1059.44 841.399 1057.78 845.791 1056.32 849.918C1054.85 854.044 1053.72 857.238 1052.92 859.501C1054.25 857.637 1056.38 854.975 1059.31 851.515C1062.37 848.054 1065.77 844.327 1069.49 840.334C1073.22 836.341 1077.08 832.481 1081.07 828.754C1085.2 825.027 1088.99 822.033 1092.45 819.77C1096.05 817.374 1099.11 816.176 1101.64 816.176C1104.83 816.176 1106.43 817.907 1106.43 821.367C1106.43 822.565 1106.1 824.362 1105.43 826.758C1104.23 830.085 1102.7 833.346 1100.84 836.541C1098.98 839.602 1097.31 842.863 1095.85 846.324C1093.32 852.58 1091.85 857.637 1091.46 861.497C1091.32 862.03 1091.26 862.562 1091.26 863.095C1091.26 863.494 1091.26 863.96 1091.26 864.492C1091.26 869.816 1093.05 872.478 1096.65 872.478C1098.64 872.478 1101.31 871.28 1104.63 868.885C1107.96 866.489 1111.35 863.627 1114.81 860.3C1118.41 856.972 1121.6 853.778 1124.4 850.716C1127.19 847.522 1129.12 845.126 1130.19 843.529C1130.59 843.129 1130.99 842.93 1131.39 842.93C1131.92 842.93 1132.32 843.129 1132.58 843.529C1132.98 843.928 1133.05 844.46 1132.78 845.126C1131.59 847.389 1129.52 850.25 1126.59 853.711C1123.8 857.039 1120.67 860.433 1117.21 863.893C1113.75 867.221 1110.36 870.083 1107.03 872.478C1105.03 873.809 1102.57 875.007 1099.64 876.072C1096.71 877.137 1093.78 877.603 1090.86 877.47C1087.13 877.07 1084.47 875.806 1082.87 873.676C1081.27 871.414 1080.47 868.751 1080.47 865.69C1080.47 862.096 1081.14 858.303 1082.47 854.31C1083.94 850.184 1085.53 846.324 1087.26 842.73C1088.99 839.136 1090.39 836.408 1091.46 834.544C1092.52 832.415 1093.05 830.751 1093.05 829.553C1093.05 828.488 1092.59 827.956 1091.66 827.956C1090.72 827.956 1089.33 828.555 1087.46 829.753C1085.6 830.951 1083.07 833.014 1079.88 835.942C1076.95 838.471 1073.82 841.798 1070.49 845.924C1067.16 849.918 1063.9 854.044 1060.71 858.303C1057.65 862.562 1054.92 866.223 1052.52 869.284C1050.26 872.345 1048.66 874.142 1047.73 874.675C1047.07 875.074 1045.54 875.739 1043.14 876.671C1040.88 877.603 1039.15 878.069 1037.95 878.069ZM1077.08 802.799C1076.02 802.799 1075.48 802.533 1075.48 802.001C1075.48 801.335 1076.48 800.404 1078.48 799.206C1079.81 798.407 1081.87 797.01 1084.67 795.013C1087.6 793.016 1090.86 790.621 1094.45 787.826C1096.31 786.228 1097.84 784.964 1099.04 784.032C1100.24 783.1 1101.11 782.635 1101.64 782.635C1102.04 782.635 1102.5 782.635 1103.04 782.635C1103.7 782.635 1104.37 782.967 1105.03 783.633C1106.5 784.698 1107.23 785.629 1107.23 786.428C1107.23 786.96 1107.09 787.493 1106.83 788.025C1106.56 788.424 1106.23 788.89 1105.83 789.423C1104.9 790.221 1103.04 791.353 1100.24 792.817C1097.45 794.281 1094.38 795.812 1091.06 797.409C1087.73 798.873 1084.73 800.137 1082.07 801.202C1079.41 802.267 1077.75 802.799 1077.08 802.799Z" fill="white"/>
<path d="M1032.84 805.994C1031.11 805.994 1029.31 805.861 1027.45 805.595C1025.59 805.195 1024.65 803.931 1024.65 801.801C1024.65 801.402 1025.52 800.47 1027.25 799.006C1029.11 797.542 1030.98 796.078 1032.84 794.614C1034.84 793.016 1036.03 792.085 1036.43 791.819C1038.7 789.955 1040.09 789.023 1040.63 789.023C1041.29 789.023 1041.29 789.889 1040.63 791.619C1039.96 793.349 1039.63 794.88 1039.63 796.211C1039.63 796.876 1039.23 798.008 1038.43 799.605C1037.63 801.202 1036.7 802.666 1035.64 803.997C1034.57 805.328 1033.64 805.994 1032.84 805.994ZM1011.08 877.47C1008.68 877.47 1006.49 876.937 1004.49 875.872C1002.63 874.808 1001.23 872.811 1000.3 869.883C1000.16 869.484 1000.03 869.084 999.897 868.685C999.897 868.286 999.897 867.82 999.897 867.287C999.897 864.625 1000.5 861.298 1001.69 857.305C1002.89 853.312 1004.36 849.452 1006.09 845.725C1005.29 846.79 1004.36 848.121 1003.29 849.718C1002.23 851.182 1000.7 853.112 998.699 855.508C998.167 856.04 997.568 856.306 996.902 856.306C995.971 856.306 995.505 855.774 995.505 854.709C995.505 853.911 995.771 853.245 996.304 852.713C999.764 848.32 1002.83 844.394 1005.49 840.933C1008.28 837.473 1010.35 834.544 1011.68 832.148C1011.68 832.015 1011.61 831.949 1011.48 831.949C1011.48 831.816 1011.48 831.683 1011.48 831.55C1011.48 831.15 1011.68 830.551 1012.08 829.753C1013.14 826.558 1014.21 823.896 1015.27 821.767C1016.47 819.504 1017.73 818.239 1019.06 817.973C1019.33 817.973 1019.6 817.973 1019.86 817.973C1020.13 817.84 1020.4 817.773 1020.66 817.773C1022.13 817.773 1023.46 818.106 1024.65 818.772C1025.85 819.437 1026.45 820.435 1026.45 821.767C1026.45 822.964 1025.99 824.429 1025.05 826.159C1024.25 827.889 1023.19 830.019 1021.86 832.548C1018.93 838.67 1016.27 844.261 1013.87 849.319C1011.61 854.243 1010.35 858.303 1010.08 861.497C1009.95 862.03 1009.88 862.562 1009.88 863.095C1009.88 863.494 1009.88 863.96 1009.88 864.492C1009.88 869.816 1011.61 872.478 1015.07 872.478C1017.2 872.478 1019.93 871.347 1023.26 869.084C1026.58 866.688 1029.98 863.827 1033.44 860.499C1036.9 857.039 1040.03 853.778 1042.82 850.716C1045.75 847.522 1047.75 845.126 1048.81 843.529C1049.21 843.129 1049.61 842.93 1050.01 842.93C1050.54 842.93 1050.94 843.129 1051.21 843.529C1051.61 843.928 1051.67 844.46 1051.41 845.126C1050.21 847.389 1048.15 850.25 1045.22 853.711C1042.42 857.039 1039.23 860.433 1035.64 863.893C1032.17 867.221 1028.78 870.083 1025.45 872.478C1023.72 873.809 1021.53 874.941 1018.86 875.872C1016.34 876.937 1013.74 877.47 1011.08 877.47Z" fill="white"/>
<path d="M965.977 882.062C963.315 882.993 960.586 883.459 957.791 883.459C954.197 883.459 950.604 882.727 947.01 881.263C943.549 879.799 939.889 877.869 936.029 875.473C933.766 874.142 931.171 872.944 928.242 871.879C925.714 873.61 923.251 875.074 920.855 876.272C918.593 877.603 916.53 878.268 914.666 878.268C913.601 878.268 912.869 878.135 912.47 877.869C911.671 877.47 911.272 876.471 911.272 874.874C911.272 872.878 912.27 870.548 914.267 867.886C916.263 865.224 919.657 863.893 924.449 863.893C926.978 863.893 929.64 864.293 932.435 865.091C935.896 862.429 937.959 860.632 938.624 859.701C944.082 855.042 949.539 850.117 954.996 844.926C960.586 839.602 965.444 834.944 969.571 830.951C966.243 829.886 963.248 829.021 960.586 828.355C957.924 827.69 955.196 827.157 952.4 826.758C951.735 826.625 951.069 826.558 950.404 826.558C949.738 826.425 949.073 826.358 948.407 826.358C945.346 826.358 942.751 826.891 940.621 827.956C938.491 829.021 936.495 830.418 934.631 832.148C932.369 834.145 930.172 836.408 928.043 838.937C925.913 841.332 923.917 843.728 922.053 846.124C921.654 846.657 921.055 847.455 920.256 848.52C919.458 849.452 918.792 849.651 918.26 849.119C917.727 848.587 917.461 848.054 917.461 847.522C917.461 846.989 917.661 846.457 918.06 845.924C920.988 841.931 923.65 838.271 926.046 834.944C928.575 831.483 930.439 829.021 931.637 827.556C934.166 823.83 936.694 821.367 939.223 820.169C941.752 818.838 944.281 818.173 946.81 818.173C949.073 818.173 951.402 818.505 953.798 819.171C956.194 819.703 958.656 820.302 961.185 820.968C963.581 821.5 966.11 822.099 968.772 822.765C971.567 823.297 974.163 823.83 976.559 824.362C977.623 823.43 979.487 822.232 982.149 820.768C984.944 819.304 987.273 818.572 989.137 818.572C991 818.572 991.932 819.504 991.932 821.367C991.932 823.63 990.867 825.693 988.737 827.556C986.741 829.287 984.345 830.618 981.55 831.549C978.888 832.348 976.625 832.548 974.762 832.148C970.236 836.008 964.779 840.667 958.39 846.124C952.001 851.448 946.078 856.573 940.621 861.497C939.822 862.03 938.957 862.695 938.025 863.494C937.227 864.293 936.295 865.158 935.23 866.089C936.295 866.622 937.293 867.088 938.225 867.487C939.29 867.886 940.288 868.352 941.22 868.885C944.947 871.147 948.474 873.077 951.801 874.675C955.262 876.272 958.656 877.07 961.984 877.07C965.178 877.07 968.306 876.205 971.368 874.475C974.163 872.878 977.623 870.349 981.749 866.888C985.876 863.294 990.002 859.368 994.128 855.109C998.254 850.849 1001.58 846.989 1004.11 843.529C1004.51 842.996 1005.18 842.73 1006.11 842.73C1006.64 842.73 1007.04 842.863 1007.3 843.129C1007.7 843.262 1007.77 843.595 1007.5 844.128C1006.44 845.991 1004.64 848.387 1002.11 851.315C999.718 854.243 996.923 857.371 993.729 860.699C990.534 863.893 987.34 866.955 984.145 869.883C980.951 872.678 978.089 875.007 975.56 876.871C973.164 878.601 971.234 879.799 969.77 880.464C968.306 881.263 967.042 881.795 965.977 882.062Z" fill="white"/>
<path d="M871.674 878.468C865.684 878.468 860.493 877.07 856.101 874.275C851.708 871.48 849.512 867.221 849.512 861.497C849.512 858.436 850.444 854.709 852.307 850.317C853.638 847.255 856.101 843.728 859.695 839.735C863.288 835.742 867.481 831.882 872.273 828.155C877.064 824.295 881.923 821.168 886.847 818.772C891.772 816.243 896.231 814.978 900.224 814.978C901.688 814.978 903.019 815.178 904.217 815.577C906.48 816.376 908.011 817.64 908.809 819.371C909.741 821.101 910.207 822.898 910.207 824.761C910.207 826.492 909.94 828.155 909.408 829.753C908.876 831.35 908.21 832.747 907.412 833.945C905.016 837.539 901.555 840.733 897.03 843.529C892.637 846.324 888.112 848.52 883.453 850.117C878.928 851.714 875.201 852.646 872.273 852.912H871.873C870.143 852.912 869.278 852.38 869.278 851.315C869.278 850.65 869.81 850.317 870.875 850.317C874.07 850.051 878.063 848.587 882.854 845.924C887.779 843.129 892.105 840.268 895.832 837.339C897.429 836.008 899.292 834.145 901.422 831.749C903.685 829.353 904.816 827.024 904.816 824.761C904.816 822.365 903.685 821.168 901.422 821.168C900.224 821.168 898.96 821.434 897.629 821.966C896.431 822.499 895.432 822.898 894.634 823.164C890.774 825.027 886.515 827.956 881.856 831.949C877.197 835.809 872.938 840.201 869.078 845.126C865.351 849.918 862.756 854.776 861.292 859.701C860.892 860.765 860.626 861.83 860.493 862.895C860.36 863.827 860.293 864.758 860.293 865.69C860.293 868.885 861.292 871.147 863.288 872.478C865.418 873.809 867.947 874.475 870.875 874.475C875.267 874.475 879.793 873.543 884.451 871.68C889.11 869.683 893.635 867.154 898.028 864.093C902.42 861.032 906.413 857.771 910.007 854.31C913.734 850.716 916.862 847.255 919.391 843.928C919.79 843.396 920.256 843.129 920.788 843.129C921.321 842.996 921.653 843.063 921.787 843.329C922.319 843.462 922.585 843.861 922.585 844.527C922.585 845.059 922.452 845.592 922.186 846.124C918.459 851.315 913.934 856.373 908.609 861.298C903.419 866.223 897.629 870.349 891.24 873.676C884.984 876.871 878.462 878.468 871.674 878.468Z" fill="white"/>
<path d="M818.187 882.062C815.525 882.993 812.797 883.459 810.002 883.459C806.408 883.459 802.814 882.727 799.22 881.263C795.76 879.799 792.099 877.869 788.239 875.473C785.977 874.142 783.381 872.944 780.453 871.879C777.924 873.61 775.462 875.074 773.066 876.272C770.803 877.603 768.74 878.268 766.877 878.268C765.812 878.268 765.08 878.135 764.68 877.869C763.882 877.47 763.482 876.471 763.482 874.874C763.482 872.878 764.481 870.548 766.477 867.886C768.474 865.224 771.868 863.893 776.66 863.893C779.188 863.893 781.851 864.293 784.646 865.091C788.106 862.429 790.169 860.632 790.835 859.701C796.292 855.042 801.749 850.117 807.206 844.926C812.797 839.602 817.655 834.944 821.781 830.951C818.454 829.886 815.459 829.021 812.797 828.355C810.135 827.69 807.406 827.157 804.611 826.758C803.945 826.625 803.28 826.558 802.614 826.558C801.949 826.425 801.283 826.358 800.618 826.358C797.557 826.358 794.961 826.891 792.831 827.956C790.702 829.021 788.705 830.418 786.842 832.148C784.579 834.145 782.383 836.408 780.253 838.937C778.124 841.332 776.127 843.728 774.264 846.124C773.864 846.657 773.265 847.455 772.467 848.52C771.668 849.452 771.003 849.651 770.47 849.119C769.938 848.587 769.672 848.054 769.672 847.522C769.672 846.989 769.871 846.457 770.271 845.924C773.199 841.931 775.861 838.271 778.257 834.944C780.786 831.483 782.649 829.021 783.847 827.556C786.376 823.83 788.905 821.367 791.434 820.169C793.963 818.838 796.492 818.173 799.021 818.173C801.283 818.173 803.613 818.505 806.008 819.171C808.404 819.703 810.867 820.302 813.396 820.968C815.791 821.5 818.32 822.099 820.982 822.765C823.778 823.297 826.373 823.83 828.769 824.362C829.834 823.43 831.697 822.232 834.359 820.768C837.154 819.304 839.484 818.572 841.347 818.572C843.21 818.572 844.142 819.504 844.142 821.367C844.142 823.63 843.077 825.693 840.948 827.556C838.951 829.287 836.555 830.618 833.76 831.549C831.098 832.348 828.835 832.548 826.972 832.148C822.447 836.008 816.989 840.667 810.601 846.124C804.212 851.448 798.289 856.573 792.831 861.497C792.033 862.03 791.168 862.695 790.236 863.494C789.437 864.293 788.506 865.158 787.441 866.089C788.506 866.622 789.504 867.088 790.436 867.487C791.5 867.886 792.499 868.352 793.43 868.885C797.157 871.147 800.684 873.077 804.012 874.675C807.473 876.272 810.867 877.07 814.194 877.07C817.389 877.07 820.517 876.205 823.578 874.475C826.373 872.878 829.834 870.349 833.96 866.888C838.086 863.294 842.212 859.368 846.338 855.109C850.465 850.849 853.792 846.989 856.321 843.529C856.72 842.996 857.386 842.73 858.318 842.73C858.85 842.73 859.249 842.863 859.515 843.129C859.915 843.262 859.981 843.595 859.715 844.128C858.65 845.991 856.853 848.387 854.324 851.315C851.929 854.243 849.133 857.371 845.939 860.699C842.745 863.893 839.55 866.955 836.356 869.883C833.161 872.678 830.3 875.007 827.771 876.871C825.375 878.601 823.445 879.799 821.981 880.464C820.517 881.263 819.252 881.795 818.187 882.062Z" fill="white"/>
<path d="M733.044 877.869C730.782 877.869 728.785 877.337 727.055 876.272C725.325 875.34 724.127 873.477 723.461 870.681C723.062 869.217 722.862 867.753 722.862 866.289C722.862 862.296 723.86 858.436 725.857 854.709C727.987 850.849 730.449 847.322 733.244 844.128C736.039 840.8 738.435 838.005 740.432 835.742C741.496 834.677 742.694 833.28 744.025 831.549C745.49 829.819 746.222 828.089 746.222 826.358C746.222 825.294 745.689 824.295 744.624 823.364C743.56 822.299 741.63 821.567 738.834 821.168C737.237 820.901 735.706 820.702 734.242 820.569C732.911 820.302 731.514 820.169 730.05 820.169C726.323 825.227 722.663 830.352 719.069 835.543C715.608 840.6 711.881 845.592 707.888 850.516C706.957 851.448 706.158 851.914 705.492 851.914C704.694 851.914 704.294 851.515 704.294 850.716C704.294 849.918 704.694 849.119 705.492 848.32C712.68 839.536 718.869 830.152 724.06 820.169C723.395 820.169 722.396 820.169 721.065 820.169C719.734 820.036 718.669 819.903 717.871 819.77C716.939 819.504 716.207 819.104 715.675 818.572C715.142 818.04 714.876 817.507 714.876 816.975C714.876 816.176 715.209 815.71 715.874 815.577C717.605 815.045 719.468 814.246 721.465 813.181C723.461 812.117 725.325 810.719 727.055 808.989C728.918 807.125 730.649 805.195 732.246 803.199C733.843 801.069 735.108 799.472 736.039 798.407C736.971 797.742 737.969 797.409 739.034 797.409C739.7 797.409 740.299 797.608 740.831 798.008C741.496 798.407 741.829 799.006 741.829 799.805C741.829 800.736 741.43 801.934 740.631 803.398C739.433 805.262 738.102 807.325 736.638 809.588C735.307 811.85 734.043 813.913 732.845 815.777C735.241 815.91 737.637 816.043 740.032 816.176C742.428 816.309 744.891 816.376 747.419 816.376C748.75 816.376 750.015 816.376 751.213 816.376C752.544 816.243 753.875 816.176 755.206 816.176C759.199 816.176 761.196 817.174 761.196 819.171C761.196 820.502 760.463 822.166 758.999 824.162C757.668 826.026 756.005 828.089 754.008 830.352C749.483 835.543 745.623 841 742.428 846.723C739.234 852.446 737.104 856.839 736.039 859.9C734.974 863.095 734.442 865.49 734.442 867.088C734.442 870.282 735.706 871.879 738.235 871.879C740.498 871.879 743.227 870.748 746.421 868.485C749.749 866.223 753.143 863.494 756.604 860.299C760.064 856.972 763.192 853.777 765.987 850.716C768.782 847.522 770.779 845.126 771.977 843.529C772.243 843.129 772.642 842.93 773.175 842.93C773.707 842.93 774.173 843.196 774.572 843.728C774.972 844.128 774.972 844.66 774.572 845.326C773.108 847.588 770.979 850.45 768.183 853.911C765.388 857.238 762.26 860.566 758.8 863.893C755.339 867.221 751.945 870.082 748.617 872.478C746.887 873.809 744.491 875.007 741.43 876.072C738.502 877.27 735.707 877.869 733.044 877.869Z" fill="white"/>
<path d="M652.72 887.652C645.133 887.652 638.811 886.188 633.753 883.26C628.695 880.331 625.7 875.806 624.768 869.683V868.485C623.704 869.949 622.439 871.68 620.975 873.676C619.644 875.673 618.18 877.337 616.583 878.668C615.119 880.132 613.588 880.864 611.991 880.864C611.724 880.864 610.926 880.731 609.595 880.464C608.397 880.198 607.199 879.865 606.001 879.466C604.936 879.067 604.337 878.601 604.204 878.069C603.805 875.54 604.404 871.946 606.001 867.287C607.731 862.496 609.928 857.238 612.59 851.515C615.385 845.791 618.246 840.068 621.175 834.345C624.236 828.621 627.031 823.497 629.56 818.971C632.089 814.313 633.886 810.786 634.951 808.39C635.749 806.926 636.282 805.728 636.548 804.796C636.814 803.731 636.947 802.933 636.947 802.4C636.947 801.602 636.814 800.936 636.548 800.404C636.814 798.806 637.746 796.677 639.343 794.015C641.073 791.353 643.203 788.691 645.732 786.029C648.261 783.367 650.99 781.17 653.918 779.44C656.846 777.577 659.575 776.645 662.104 776.645C662.902 776.645 664.1 776.911 665.697 777.444C667.428 777.843 669.025 778.508 670.489 779.44C672.086 780.372 673.085 781.703 673.484 783.433C673.617 783.832 673.683 784.232 673.683 784.631C673.683 785.03 673.55 785.23 673.284 785.23C673.018 785.23 672.619 785.163 672.086 785.03C671.687 784.764 671.354 784.631 671.088 784.631C668.027 784.631 664.699 786.095 661.105 789.023C657.512 791.952 653.785 795.878 649.925 800.803C646.198 805.728 642.538 811.118 638.944 816.975C635.35 822.831 631.889 828.754 628.562 834.744C625.367 840.6 622.572 846.058 620.176 851.115C617.781 856.04 615.917 860.033 614.586 863.095C613.521 866.023 612.989 868.086 612.989 869.284C612.989 871.147 613.721 872.079 615.185 872.079C617.049 872.079 619.045 870.815 621.175 868.286C622.639 866.555 623.97 864.958 625.168 863.494C626.499 861.897 627.63 861.231 628.562 861.497C630.425 861.497 631.69 862.03 632.355 863.095C633.021 864.026 633.42 865.158 633.553 866.489C633.686 867.82 633.819 869.018 633.952 870.082C634.884 874.209 637.014 877.603 640.341 880.265C643.802 883.06 648.594 884.457 654.716 884.457C661.238 884.457 667.095 883.393 672.286 881.263C677.477 879.133 681.603 876.205 684.664 872.478C687.726 868.618 689.256 864.293 689.256 859.501C689.256 856.173 688.458 852.713 686.861 849.119C685.263 845.392 682.734 841.665 679.274 837.938C676.345 834.478 673.085 831.217 669.491 828.155C665.897 825.094 662.769 822.299 660.107 819.77C657.578 817.108 656.314 814.845 656.314 812.982C656.314 811.385 657.378 809.987 659.508 808.789C661.638 807.458 663.368 806.792 664.699 806.792C667.76 806.792 671.62 806.194 676.279 804.996C681.071 803.798 685.995 802.2 691.053 800.204C696.111 798.074 700.703 795.745 704.829 793.216C709.089 790.687 712.216 788.158 714.213 785.629C715.411 784.165 716.343 782.634 717.008 781.037C717.807 779.307 718.206 777.643 718.206 776.046C718.206 773.517 717.075 771.254 714.812 769.258C712.682 767.128 709.022 765.597 703.831 764.666C702.367 764.266 700.637 764 698.64 763.867C696.644 763.734 694.514 763.667 692.251 763.667C685.463 763.667 677.61 764.333 668.692 765.664C659.774 766.862 650.723 768.659 641.539 771.055C632.355 773.45 623.77 776.445 615.784 780.039C607.798 783.633 601.209 787.825 596.018 792.617C590.961 797.276 588.099 802.467 587.433 808.19C587.167 811.518 587.966 814.047 589.829 815.777C591.693 817.507 593.889 818.838 596.418 819.77C598.947 820.569 600.943 821.367 602.407 822.166C603.605 822.698 604.204 823.231 604.204 823.763C604.204 824.428 603.472 824.761 602.008 824.761C600.411 824.761 598.414 824.362 596.018 823.563C593.623 822.765 591.227 821.567 588.831 819.97C586.568 818.239 584.705 816.176 583.241 813.78C581.777 811.385 581.244 808.589 581.643 805.395C581.643 805.129 581.577 804.663 581.444 803.997C581.311 803.199 581.244 802.6 581.244 802.2C581.643 797.941 583.44 793.882 586.635 790.022C589.962 786.162 593.822 782.634 598.215 779.44C602.74 776.246 606.933 773.584 610.793 771.454C615.052 769.191 620.176 767.128 626.166 765.265C632.156 763.268 638.545 761.538 645.333 760.074C652.254 758.61 659.242 757.478 666.296 756.68C673.351 755.748 679.939 755.282 686.062 755.282C692.584 755.282 698.307 755.814 703.232 756.879C709.887 758.343 715.012 760.939 718.605 764.666C722.199 768.393 723.996 772.519 723.996 777.044C723.863 781.969 722.332 786.295 719.404 790.022C716.609 793.615 712.949 796.677 708.423 799.206C703.898 801.735 698.973 803.864 693.649 805.595C688.458 807.192 683.333 808.39 678.275 809.188C673.218 809.987 668.825 810.453 665.098 810.586C670.689 813.913 676.212 817.64 681.67 821.766C687.26 825.76 691.852 830.152 695.446 834.944C699.172 839.735 701.036 844.993 701.036 850.716C701.036 853.911 700.304 857.238 698.84 860.699C697.509 864.026 695.313 867.62 692.251 871.48C688.258 876.405 682.668 880.331 675.48 883.26C668.426 886.188 660.839 887.652 652.72 887.652Z" fill="white"/>
<path d="M497.814 877.47C495.552 877.47 493.422 876.937 491.426 875.872C489.562 874.808 488.165 872.811 487.233 869.883C486.834 868.685 486.634 867.021 486.634 864.891C486.634 861.963 487.033 858.702 487.832 855.109C488.63 851.515 489.496 848.453 490.427 845.924C489.762 846.191 488.497 847.389 486.634 849.518C484.904 851.515 482.707 853.977 480.045 856.905C477.516 859.701 474.655 862.562 471.46 865.49C468.399 868.286 465.204 870.615 461.877 872.478C458.549 874.342 455.288 875.273 452.094 875.273C449.964 875.273 447.702 874.674 445.306 873.477C442.91 872.146 440.98 870.482 439.516 868.485C437.519 865.823 436.521 863.095 436.521 860.299C436.521 856.706 437.719 852.979 440.115 849.119C442.644 845.259 445.838 841.532 449.698 837.938C453.691 834.212 457.884 830.884 462.276 827.956C466.802 824.894 471.061 822.365 475.054 820.369C479.18 818.239 482.508 816.842 485.037 816.176C487.699 815.378 490.693 814.978 494.021 814.978C495.884 814.978 497.814 815.244 499.811 815.777C501.807 816.176 503.471 816.908 504.802 817.973C505.867 818.505 506.732 819.238 507.398 820.169C508.063 821.101 508.396 822.099 508.396 823.164C508.396 824.229 507.93 824.562 506.998 824.162C505.934 822.565 504.47 821.567 502.606 821.168C500.876 820.635 499.079 820.369 497.215 820.369C491.891 820.369 486.035 822.099 479.646 825.56C473.257 829.021 467.534 833.08 462.476 837.739C460.879 839.07 458.682 841.399 455.887 844.727C453.225 847.921 450.763 851.448 448.5 855.308C446.237 859.168 445.106 862.695 445.106 865.89C445.106 867.62 445.572 869.151 446.504 870.482C447.036 871.413 447.901 871.879 449.099 871.879C450.963 871.879 453.425 870.881 456.486 868.885C459.681 866.888 462.942 864.492 466.269 861.697C469.597 858.769 472.592 855.974 475.254 853.312C478.049 850.65 480.045 848.72 481.243 847.522C481.909 846.856 483.173 845.525 485.037 843.529C487.033 841.399 489.163 839.136 491.426 836.74C493.688 834.345 495.685 832.282 497.415 830.551C499.279 828.821 500.476 827.956 501.009 827.956C501.674 827.956 502.739 828.155 504.203 828.555C505.801 828.821 507.132 829.287 508.196 829.952C509.261 830.618 509.461 831.483 508.795 832.548C505.335 837.606 502.54 842.93 500.41 848.52C498.413 853.977 497.215 858.303 496.816 861.497C496.683 862.03 496.617 862.562 496.617 863.095C496.617 863.494 496.617 863.96 496.617 864.492C496.617 869.816 498.48 872.478 502.207 872.478C504.203 872.478 506.865 871.28 510.193 868.885C513.52 866.489 516.915 863.627 520.375 860.299C523.836 856.972 526.964 853.777 529.759 850.716C532.687 847.522 534.684 845.126 535.748 843.529C536.148 843.129 536.547 842.93 536.946 842.93C537.479 842.93 537.945 843.196 538.344 843.728C538.743 844.128 538.743 844.66 538.344 845.326C536.88 847.721 534.75 850.583 531.955 853.911C529.16 857.238 526.032 860.566 522.571 863.893C519.111 867.221 515.717 870.082 512.389 872.478C510.659 873.809 508.463 874.941 505.801 875.872C503.139 876.937 500.476 877.47 497.814 877.47Z" fill="white"/>
<path d="M353.007 878.069C352.075 878.069 351.809 877.603 352.208 876.671C352.607 875.872 353.339 874.076 354.404 871.28C355.469 868.352 356.667 864.892 357.998 860.898C359.462 856.905 360.926 852.779 362.39 848.52C363.854 844.261 365.185 840.268 366.383 836.541C367.714 832.814 368.779 829.886 369.578 827.756C369.844 826.957 370.11 825.826 370.376 824.362C370.643 822.765 371.175 821.367 371.974 820.169C372.905 818.838 374.436 818.173 376.566 818.173C380.559 818.173 382.555 819.104 382.555 820.968C382.555 821.633 382.223 822.765 381.557 824.362C379.96 827.956 378.229 832.082 376.366 836.74C374.503 841.399 372.839 845.791 371.375 849.918C369.911 854.044 368.779 857.238 367.981 859.501C369.312 857.637 371.441 854.975 374.369 851.515C377.431 848.054 380.825 844.327 384.552 840.334C388.279 836.341 392.139 832.481 396.132 828.754C400.258 825.027 404.051 822.033 407.512 819.77C411.106 817.374 414.167 816.176 416.696 816.176C419.89 816.176 421.488 817.907 421.488 821.367C421.488 822.565 421.155 824.362 420.489 826.758C419.291 830.085 417.761 833.346 415.897 836.541C414.034 839.602 412.37 842.863 410.906 846.324C408.377 852.58 406.913 857.637 406.514 861.497C406.381 862.03 406.314 862.562 406.314 863.095C406.314 863.494 406.314 863.96 406.314 864.492C406.314 869.816 408.111 872.478 411.705 872.478C413.701 872.478 416.363 871.28 419.691 868.885C423.018 866.489 426.412 863.627 429.873 860.3C433.467 856.972 436.661 853.778 439.456 850.716C442.251 847.522 444.181 845.126 445.246 843.529C445.646 843.129 446.045 842.93 446.444 842.93C446.977 842.93 447.376 843.129 447.642 843.529C448.041 843.928 448.108 844.46 447.842 845.126C446.644 847.389 444.581 850.25 441.653 853.711C438.857 857.039 435.729 860.433 432.269 863.893C428.808 867.221 425.414 870.082 422.087 872.478C420.09 873.809 417.628 875.007 414.699 876.072C411.771 877.137 408.843 877.603 405.915 877.47C402.188 877.07 399.526 875.806 397.929 873.676C396.331 871.414 395.533 868.751 395.533 865.69C395.533 862.096 396.198 858.303 397.529 854.31C398.993 850.184 400.591 846.324 402.321 842.73C404.051 839.136 405.449 836.408 406.514 834.544C407.578 832.415 408.111 830.751 408.111 829.553C408.111 828.488 407.645 827.956 406.713 827.956C405.782 827.956 404.384 828.555 402.521 829.753C400.657 830.951 398.128 833.014 394.934 835.942C392.006 838.471 388.878 841.798 385.55 845.924C382.223 849.918 378.962 854.044 375.767 858.303C372.706 862.562 369.977 866.223 367.581 869.284C365.319 872.345 363.721 874.142 362.79 874.675C362.124 875.074 360.593 875.739 358.198 876.671C355.935 877.603 354.205 878.069 353.007 878.069Z" fill="white"/>
<path d="M270.143 948.746C268.546 948.346 267.148 947.947 265.95 947.548C263.421 946.217 261.624 944.686 260.559 942.956C259.495 941.359 258.962 939.628 258.962 937.765C258.962 934.703 260.027 931.376 262.157 927.782C264.153 924.322 266.815 920.728 270.143 917.001C273.47 913.008 277.663 908.948 282.721 904.822C287.912 900.696 293.302 896.703 298.893 892.843C304.483 889.116 309.408 885.855 313.667 883.06C315.93 878.401 318.259 873.41 320.655 868.086C323.184 862.762 325.58 857.637 327.842 852.713C330.105 847.655 332.035 843.063 333.632 838.937C335.363 834.81 336.627 831.616 337.426 829.353C335.296 831.882 332.834 835.077 330.039 838.937C327.243 842.663 324.182 846.657 320.855 850.916C317.527 855.042 314.066 858.968 310.473 862.695C307.012 866.422 303.418 869.484 299.691 871.879C295.965 874.142 292.304 875.273 288.71 875.273C283.386 875.273 279.66 873.942 277.53 871.28C275.533 868.485 274.535 865.224 274.535 861.497C274.535 858.835 274.868 856.173 275.533 853.511C276.332 850.849 277.33 848.387 278.528 846.124C279.327 844.527 280.591 842.397 282.322 839.735C284.052 837.073 286.048 834.345 288.311 831.549C290.574 828.754 292.837 826.425 295.099 824.562C297.495 822.698 299.758 821.766 301.888 821.766C304.416 821.766 306.346 822.698 307.677 824.562C309.009 826.292 309.142 827.49 308.077 828.155C305.947 829.62 303.285 831.882 300.091 834.944C297.029 837.872 293.968 841.266 290.907 845.126C290.108 846.191 289.11 847.854 287.912 850.117C286.847 852.38 285.849 854.842 284.917 857.504C283.985 860.033 283.519 862.363 283.519 864.492C283.519 865.424 283.653 866.356 283.919 867.287C284.185 868.086 284.651 868.685 285.316 869.084C286.381 869.883 287.579 870.282 288.91 870.282C290.774 870.282 292.837 869.683 295.099 868.485C297.495 867.287 299.758 865.757 301.888 863.893C309.341 856.706 315.996 849.185 321.853 841.332C327.709 833.479 333.899 825.693 340.421 817.973C340.82 816.642 341.951 815.977 343.815 815.977C345.944 815.977 348.14 816.642 350.403 817.973C352.799 819.171 353.797 820.169 353.398 820.968C352.2 823.63 350.603 827.157 348.606 831.549C346.743 835.942 344.68 840.667 342.417 845.725C340.154 850.783 337.892 855.841 335.629 860.898C333.366 865.823 331.303 870.282 329.44 874.275C331.037 873.477 333.899 871.48 338.025 868.286C342.151 865.091 346.676 861.231 351.601 856.706C356.526 852.047 360.985 847.256 364.978 842.331C365.776 841.532 366.375 841.133 366.775 841.133C367.573 841.133 367.973 841.665 367.973 842.73C367.973 843.662 367.573 844.727 366.775 845.924C364.778 848.587 361.983 851.714 358.389 855.308C354.929 858.902 351.135 862.562 347.009 866.289C343.016 869.883 339.09 873.144 335.23 876.072C331.37 879.133 328.042 881.463 325.247 883.06C321.121 891.845 317.128 900.097 313.268 907.817C309.408 915.67 305.881 921.992 302.686 926.784C300.557 930.111 297.961 933.506 294.9 936.966C291.838 940.427 288.511 943.289 284.917 945.551C281.323 947.947 277.53 949.145 273.537 949.145C273.004 949.145 272.472 949.079 271.94 948.945C271.407 948.945 270.808 948.879 270.143 948.746ZM270.742 944.353C271.807 944.353 273.071 944.021 274.535 943.355C276.132 942.69 277.796 941.625 279.526 940.161C284.584 936.035 288.844 931.176 292.304 925.586C295.765 920.129 298.826 914.339 301.488 908.216C304.283 902.094 307.079 896.237 309.874 890.647C304.683 894.507 298.826 899.032 292.304 904.223C285.782 909.547 279.859 914.805 274.535 919.996C271.341 923.19 269.011 926.318 267.547 929.379C266.083 932.574 265.351 935.369 265.351 937.765C265.351 942.157 267.148 944.353 270.742 944.353Z" fill="white"/>
<path d="M243.272 877.47C240.877 877.47 238.68 876.937 236.684 875.872C234.82 874.808 233.423 872.811 232.491 869.883C232.358 869.484 232.225 869.084 232.092 868.685C232.092 868.286 232.092 867.82 232.092 867.287C232.092 864.625 232.691 861.298 233.889 857.305C235.087 853.312 236.551 849.452 238.281 845.725C237.482 846.79 236.551 848.121 235.486 849.718C234.421 851.182 232.89 853.112 230.894 855.508C230.361 856.04 229.763 856.306 229.097 856.306C228.165 856.306 227.699 855.774 227.699 854.709C227.699 853.911 227.966 853.245 228.498 852.713C231.959 848.32 235.02 844.394 237.682 840.933C240.477 837.473 242.54 834.544 243.871 832.148C243.871 831.882 244.271 831.084 245.069 829.753C245.868 828.289 246.933 826.292 248.264 823.763C247.199 823.896 246.267 824.029 245.469 824.162C244.803 824.162 244.204 824.162 243.672 824.162C242.74 824.162 241.941 823.763 241.276 822.964C240.61 822.166 240.544 821.168 241.076 819.97C241.742 818.106 243.206 817.041 245.469 816.775C247.731 816.509 249.728 816.309 251.458 816.176C251.591 815.91 251.857 815.777 252.257 815.777C253.854 812.849 255.385 809.987 256.849 807.192C258.313 804.397 259.511 802.067 260.443 800.204C261.507 798.341 262.04 797.342 262.04 797.209C264.702 792.95 266.432 790.155 267.231 788.824C268.029 787.36 269.094 786.494 270.425 786.228C271.889 786.095 273.42 786.162 275.017 786.428C276.748 786.694 277.879 787.293 278.411 788.225C278.811 788.757 279.01 789.423 279.01 790.221C279.01 791.419 278.744 792.617 278.212 793.815C277.679 794.88 277.147 795.745 276.614 796.411C276.082 797.342 275.35 798.008 274.418 798.407C273.62 798.673 272.888 799.472 272.222 800.803C270.891 803.332 269.427 806.06 267.83 808.989C266.232 811.917 264.569 814.712 262.838 817.374L265.234 817.174C268.429 816.908 271.423 816.576 274.219 816.176C277.147 815.777 280.474 815.644 284.201 815.777C284.867 815.777 285.532 815.91 286.198 816.176C286.996 816.309 287.396 816.576 287.396 816.975C287.396 817.507 285.665 818.239 282.205 819.171C280.874 819.703 277.945 820.302 273.42 820.968C269.028 821.5 264.502 822.033 259.844 822.565C258.513 825.094 257.315 827.224 256.25 828.954C255.185 830.551 254.453 831.749 254.054 832.548C251.125 838.67 248.463 844.261 246.068 849.319C243.805 854.243 242.54 858.303 242.274 861.497C242.141 862.03 242.074 862.562 242.074 863.095C242.074 863.494 242.074 863.96 242.074 864.492C242.074 869.816 243.805 872.478 247.265 872.478C249.395 872.478 252.124 871.347 255.451 869.084C258.779 866.688 262.173 863.827 265.634 860.499C269.094 857.039 272.222 853.778 275.017 850.716C277.945 847.522 279.942 845.126 281.007 843.529C281.406 843.129 281.805 842.93 282.205 842.93C282.737 842.93 283.136 843.129 283.403 843.529C283.802 843.928 283.868 844.46 283.602 845.126C282.404 847.389 280.341 850.25 277.413 853.711C274.618 857.039 271.423 860.433 267.83 863.893C264.369 867.221 260.975 870.083 257.647 872.478C255.917 873.809 253.721 874.941 251.059 875.872C248.53 876.937 245.934 877.47 243.272 877.47Z" fill="white"/>
<path d="M176.608 885.456C171.284 885.456 168.622 883.992 168.622 881.063C168.622 878.934 169.754 876.738 172.016 874.475C173.747 872.745 175.677 871.347 177.806 870.282C179.936 869.217 181.267 868.685 181.799 868.685C182.465 868.685 182.798 868.951 182.798 869.484C182.931 870.016 182.665 870.415 181.999 870.681C180.668 871.48 179.137 872.611 177.407 874.076C175.81 875.407 175.011 876.871 175.011 878.468C175.011 880.598 176.276 881.662 178.805 881.662C181.866 881.662 185.06 880.731 188.388 878.867C191.716 877.137 194.777 874.874 197.572 872.079C200.5 869.284 202.83 866.489 204.56 863.694C206.423 860.765 207.355 858.236 207.355 856.107C207.355 854.376 206.756 852.779 205.558 851.315C204.36 849.851 201.898 848.121 198.171 846.124C195.642 844.66 193.18 843.129 190.784 841.532C188.521 839.935 186.791 838.005 185.593 835.742C184.528 837.606 183.13 839.868 181.4 842.53C179.803 845.059 177.873 847.721 175.61 850.517C174.812 851.315 174.013 851.714 173.214 851.714C172.416 851.714 172.016 851.382 172.016 850.716C172.016 850.317 172.349 849.651 173.015 848.72C176.608 844.46 179.27 840.534 181.001 836.94C182.731 833.346 183.929 830.618 184.595 828.754C185.127 824.894 186.924 821.234 189.985 817.773C193.047 814.313 196.773 811.318 201.166 808.789C205.558 806.127 210.017 804.064 214.542 802.6C219.201 801.136 223.327 800.404 226.921 800.404C230.515 800.404 233.709 801.069 236.504 802.4C239.299 803.731 240.697 805.861 240.697 808.789C240.697 810.386 240.231 812.117 239.299 813.98C238.102 816.509 236.105 818.772 233.31 820.768C233.177 820.901 232.977 820.968 232.711 820.968C231.646 820.968 231.114 820.502 231.114 819.57C231.114 818.905 231.446 818.239 232.112 817.574C233.177 816.642 234.042 815.511 234.707 814.18C235.373 812.849 235.706 811.584 235.706 810.386C235.706 807.99 234.308 806.793 231.513 806.793C228.585 806.793 224.725 807.591 219.933 809.188C215.275 810.786 210.949 812.849 206.956 815.378C202.43 818.306 198.637 821.5 195.575 824.961C192.514 828.422 190.983 831.483 190.983 834.145C190.983 835.476 191.383 836.74 192.181 837.938C193.113 839.003 194.843 840.268 197.372 841.732C198.703 842.53 200.567 843.595 202.963 844.926C205.358 846.124 207.422 847.256 209.152 848.32C214.609 851.648 217.338 855.175 217.338 858.902C217.338 861.963 216.007 865.091 213.345 868.286C210.683 871.347 207.222 874.142 202.963 876.671C198.836 879.333 194.444 881.463 189.786 883.06C185.127 884.657 180.735 885.456 176.608 885.456Z" fill="white"/>
<path d="M139.007 877.47C136.611 877.47 134.481 876.937 132.618 875.872C130.754 874.808 129.357 872.811 128.425 869.883C128.292 869.217 128.092 868.485 127.826 867.687C127.693 866.755 127.626 865.823 127.626 864.891C127.626 861.697 128.026 858.103 128.824 854.11C129.756 850.117 130.754 846.79 131.819 844.128C131.287 844.527 130.355 845.858 129.024 848.121C127.693 850.383 126.029 853.045 124.033 856.107C122.036 859.035 119.773 862.03 117.244 865.091C114.849 868.019 112.187 870.482 109.258 872.478C106.463 874.342 103.468 875.273 100.274 875.273C98.1443 875.273 95.5488 874.674 92.4875 873.477C89.5592 872.279 87.4296 870.615 86.0986 868.485C84.7676 866.356 84.1021 863.694 84.1021 860.499C84.1021 856.639 84.9672 852.446 86.6975 847.921C88.4279 843.262 90.6241 838.937 93.2861 834.944C94.2178 833.613 95.2826 832.015 96.4805 830.152C97.6785 828.288 98.8764 826.691 100.074 825.36C101.272 823.896 102.137 823.097 102.67 822.964C104.267 822.432 106.13 822.166 108.26 822.166C110.523 822.166 112.187 822.432 113.251 822.964C114.183 823.364 114.649 823.83 114.649 824.362C114.649 825.027 114.117 825.893 113.052 826.957C111.588 828.288 109.591 830.285 107.062 832.947C104.533 835.609 102.004 838.804 99.4753 842.53C97.0795 846.257 95.083 850.383 93.4857 854.909C92.1547 858.503 91.4892 861.631 91.4892 864.293C91.4892 868.951 93.3526 871.28 97.0795 871.28C100.274 871.28 103.668 869.949 107.262 867.287C110.856 864.625 114.316 861.364 117.644 857.504C121.104 853.644 124.166 849.851 126.828 846.124C129.623 842.264 131.753 839.203 133.217 836.94C134.548 835.077 136.012 832.681 137.609 829.753C139.339 826.824 141.003 823.963 142.6 821.168C144.198 818.372 145.462 816.309 146.394 814.978C147.325 814.978 148.723 815.178 150.586 815.577C152.583 815.843 154.247 816.376 155.578 817.174C157.042 817.973 157.441 818.971 156.776 820.169C155.977 821.5 154.713 823.563 152.982 826.358C151.385 829.154 149.721 832.015 147.991 834.944C146.394 837.739 145.129 840.001 144.198 841.732C141.003 847.854 138.94 854.443 138.008 861.497C137.875 862.03 137.809 862.562 137.809 863.095C137.809 863.494 137.809 863.96 137.809 864.492C137.809 869.816 139.606 872.478 143.199 872.478C145.196 872.478 147.858 871.28 151.185 868.885C154.513 866.489 157.907 863.627 161.368 860.299C164.961 856.972 168.156 853.777 170.951 850.716C173.879 847.522 175.876 845.126 176.941 843.529C177.207 843.129 177.606 842.93 178.139 842.93C178.671 842.93 179.07 843.129 179.336 843.529C179.736 843.928 179.736 844.46 179.336 845.126C178.139 847.389 176.075 850.25 173.147 853.711C170.352 857.038 167.224 860.433 163.764 863.893C160.303 867.221 156.909 870.082 153.581 872.478C151.851 873.809 149.655 874.941 146.993 875.872C144.331 876.937 141.669 877.47 139.007 877.47Z" fill="white"/>
<path d="M16.7708 896.437C11.713 896.437 7.65336 894.973 4.59202 892.044C1.53067 889.249 0 885.456 0 880.664C0 877.203 0.931714 873.277 2.79514 868.885C4.79167 864.492 7.91957 859.834 12.1788 854.909C21.2298 844.394 31.279 835.875 42.3264 829.353C53.507 822.831 65.5527 817.507 78.4636 813.381C79.6615 810.187 80.9925 805.994 82.4567 800.803C84.0539 795.612 85.9173 790.155 88.0469 784.431C90.1766 778.575 92.5059 773.317 95.0348 768.659C89.0452 768.393 82.7229 768.659 76.0678 769.457C69.4127 770.123 63.0903 771.387 57.1007 773.251C51.2443 774.981 46.4526 777.444 42.7257 780.638C39.132 783.699 37.3351 787.493 37.3351 792.018C37.3351 794.68 38.0672 796.876 39.5313 798.607C41.1285 800.204 42.8588 801.468 44.7223 802.4C46.7188 803.332 48.2495 804.131 49.3143 804.796C50.246 805.328 50.7118 805.794 50.7118 806.194C50.7118 806.859 50.0463 806.992 48.7153 806.593C44.3229 805.661 40.5295 803.398 37.3351 799.805C34.1407 796.078 32.5434 791.952 32.5434 787.426C32.2772 782.368 33.5417 778.109 36.3368 774.648C39.132 771.188 42.9254 768.393 47.717 766.263C52.5087 764 57.8993 762.403 63.8889 761.471C69.8785 760.407 75.9347 759.874 82.0574 759.874C85.3849 759.874 88.5793 760.007 91.6407 760.273C94.702 760.407 97.6303 760.739 100.425 761.272C101.89 759.541 103.487 758.144 105.217 757.079C106.947 756.014 108.744 755.482 110.608 755.482C112.072 755.482 112.804 755.948 112.804 756.879C112.804 757.944 112.072 758.61 110.608 758.876C108.744 759.142 106.881 760.273 105.017 762.27C106.748 762.802 108.345 763.335 109.809 763.867C111.406 764.4 112.87 764.999 114.201 765.664C115 766.063 115.998 766.929 117.196 768.26C118.527 769.591 119.193 770.589 119.193 771.254C119.193 771.92 118.727 772.253 117.795 772.253C117.263 772.253 116.597 772.186 115.799 772.053C115 771.92 114.002 771.654 112.804 771.254C109.609 770.19 105.683 769.457 101.024 769.058C99.5603 772.785 98.0961 777.111 96.632 782.036C95.1679 786.96 93.7703 791.885 92.4393 796.81C91.2414 801.735 89.9769 806.327 88.6459 810.586C95.4341 808.723 100.758 807.791 104.618 807.791C106.215 807.791 107.28 807.99 107.813 808.39C108.345 808.789 108.611 809.321 108.611 809.987C108.611 811.185 108.145 811.584 107.214 811.185C106.415 810.919 105.483 810.786 104.418 810.786C102.555 810.786 100.359 811.052 97.8299 811.584C95.301 812.117 92.9717 812.915 90.8421 813.98C88.8456 814.912 87.5811 816.043 87.0487 817.374C81.7246 831.882 75.9347 844.194 69.6789 854.31C63.5562 864.426 57.3004 872.545 50.9115 878.668C44.5226 884.923 38.3999 889.449 32.5434 892.244C26.6869 895.039 21.4294 896.437 16.7708 896.437ZM20.7639 890.846C25.6887 890.846 30.5469 888.916 35.3386 885.057C40.2633 881.33 44.9219 876.471 49.3143 870.482C53.7066 864.492 57.7662 858.103 61.4931 851.315C65.22 844.527 68.4144 838.072 71.0764 831.949C73.7385 825.826 75.735 820.901 77.066 817.175C66.1517 820.768 56.0359 825.56 46.7188 831.55C37.4016 837.539 29.0828 845.059 21.7622 854.11C17.7691 859.035 14.8409 863.694 12.9774 868.086C11.2471 872.345 10.382 876.072 10.382 879.267C10.382 882.86 11.3137 885.655 13.1771 887.652C15.0405 889.782 17.5695 890.846 20.7639 890.846Z" fill="white"/>
<path d="M1016.54 993.924C1017.89 993.978 1019.7 994.032 1021.97 994.086C1024.29 994.14 1026.59 994.167 1028.86 994.167C1031.45 994.167 1033.97 994.14 1036.4 994.086C1038.83 994.032 1040.56 994.005 1041.58 994.005C1046.61 994.005 1050.77 994.572 1054.07 995.707C1057.42 996.788 1059.9 998.382 1061.52 1000.49C1063.2 1002.6 1064.04 1005.14 1064.04 1008.11C1064.04 1009.95 1063.66 1011.81 1062.9 1013.7C1062.15 1015.54 1060.85 1017.27 1059.01 1018.89C1057.23 1020.46 1054.77 1021.73 1051.64 1022.7C1048.5 1023.62 1044.56 1024.08 1039.8 1024.08H1032.02V1022.45H1038.99C1042.18 1022.45 1044.58 1021.86 1046.2 1020.67C1047.88 1019.43 1049.01 1017.81 1049.61 1015.81C1050.26 1013.76 1050.58 1011.49 1050.58 1009C1050.58 1004.73 1049.83 1001.43 1048.31 999.111C1046.8 996.734 1044.21 995.545 1040.53 995.545C1038.42 995.545 1037.05 996.004 1036.4 996.923C1035.8 997.841 1035.51 999.706 1035.51 1002.52V1042.72C1035.51 1044.66 1035.64 1046.12 1035.91 1047.1C1036.24 1048.07 1036.83 1048.72 1037.69 1049.04C1038.56 1049.36 1039.86 1049.58 1041.58 1049.69V1051.31C1040.13 1051.2 1038.29 1051.15 1036.07 1051.15C1033.86 1051.09 1031.62 1051.07 1029.35 1051.07C1026.75 1051.07 1024.29 1051.09 1021.97 1051.15C1019.7 1051.15 1017.89 1051.2 1016.54 1051.31V1049.69C1018.27 1049.58 1019.57 1049.36 1020.43 1049.04C1021.29 1048.72 1021.86 1048.07 1022.13 1047.1C1022.46 1046.12 1022.62 1044.66 1022.62 1042.72V1002.52C1022.62 1000.52 1022.46 999.057 1022.13 998.139C1021.86 997.166 1021.27 996.518 1020.35 996.193C1019.48 995.815 1018.21 995.599 1016.54 995.545V993.924ZM1031.86 1022.7C1034.18 1022.75 1036.18 1022.86 1037.86 1023.02C1039.59 1023.18 1041.1 1023.35 1042.4 1023.51C1043.69 1023.62 1044.85 1023.7 1045.88 1023.75C1050.8 1024.18 1054.42 1025.24 1056.74 1026.91C1059.12 1028.59 1060.66 1031.1 1061.36 1034.45L1063.23 1042.8C1063.71 1044.96 1064.23 1046.47 1064.77 1047.34C1065.31 1048.2 1066.09 1048.64 1067.12 1048.64C1067.82 1048.58 1068.39 1048.42 1068.82 1048.15C1069.31 1047.82 1069.82 1047.37 1070.36 1046.77L1071.49 1047.74C1070.04 1049.42 1068.47 1050.61 1066.79 1051.31C1065.12 1052.07 1063.09 1052.45 1060.71 1052.45C1057.8 1052.45 1055.39 1051.82 1053.5 1050.58C1051.61 1049.34 1050.37 1047.04 1049.77 1043.69L1048.31 1035.59C1047.93 1033.32 1047.47 1031.34 1046.93 1029.67C1046.39 1027.94 1045.64 1026.59 1044.66 1025.62C1043.75 1024.59 1042.45 1024.08 1040.77 1024.08H1032.02L1031.86 1022.7Z" fill="#C09A68"/>
<path d="M999.616 993.924C999.399 996.301 999.237 998.598 999.129 1000.81C999.075 1003.03 999.048 1004.73 999.048 1005.92C999.048 1007 999.075 1008.03 999.129 1009C999.183 1009.97 999.237 1010.78 999.291 1011.43H997.427C996.887 1007.49 996.049 1004.38 994.914 1002.11C993.78 999.787 992.294 998.166 990.456 997.247C988.673 996.274 986.566 995.788 984.134 995.788H980.811C979.244 995.788 978.055 995.923 977.245 996.193C976.434 996.463 975.894 997.004 975.623 997.814C975.353 998.625 975.218 999.868 975.218 1001.54V1043.69C975.218 1045.37 975.353 1046.61 975.623 1047.42C975.894 1048.23 976.434 1048.77 977.245 1049.04C978.055 1049.31 979.244 1049.45 980.811 1049.45H984.783C987.214 1049.45 989.349 1048.93 991.186 1047.91C993.077 1046.83 994.671 1045.02 995.968 1042.48C997.319 1039.94 998.346 1036.5 999.048 1032.18H1000.91C1000.75 1033.91 1000.67 1036.18 1000.67 1038.99C1000.67 1040.23 1000.7 1041.99 1000.75 1044.26C1000.8 1046.53 1000.97 1048.88 1001.24 1051.31C998.481 1051.2 995.374 1051.15 991.915 1051.15C988.457 1051.09 985.377 1051.07 982.675 1051.07C981.324 1051.07 979.595 1051.07 977.488 1051.07C975.38 1051.07 973.111 1051.09 970.679 1051.15C968.248 1051.15 965.789 1051.18 963.303 1051.23C960.817 1051.23 958.467 1051.26 956.251 1051.31V1049.69C957.981 1049.58 959.277 1049.36 960.142 1049.04C961.007 1048.72 961.574 1048.07 961.844 1047.1C962.168 1046.12 962.331 1044.66 962.331 1042.72V1002.52C962.331 1000.52 962.168 999.057 961.844 998.139C961.574 997.166 960.98 996.518 960.061 996.193C959.196 995.815 957.927 995.599 956.251 995.545V993.924C958.467 993.978 960.817 994.032 963.303 994.086C965.789 994.086 968.248 994.113 970.679 994.167C973.111 994.167 975.38 994.167 977.488 994.167C979.595 994.167 981.324 994.167 982.675 994.167C985.161 994.167 987.971 994.167 991.105 994.167C994.293 994.113 997.13 994.032 999.616 993.924ZM986.971 1021.64C986.971 1021.64 986.971 1021.91 986.971 1022.45C986.971 1023 986.971 1023.27 986.971 1023.27H972.787C972.787 1023.27 972.787 1023 972.787 1022.45C972.787 1021.91 972.787 1021.64 972.787 1021.64H986.971ZM989.322 1010.95C989.106 1014.03 988.997 1016.38 988.997 1018C989.051 1019.62 989.078 1021.1 989.078 1022.45C989.078 1023.81 989.106 1025.29 989.16 1026.91C989.214 1028.53 989.349 1030.88 989.565 1033.96H987.701C987.43 1032.07 986.917 1030.32 986.161 1028.7C985.458 1027.08 984.431 1025.78 983.08 1024.81C981.73 1023.78 979.973 1023.27 977.812 1023.27V1021.64C979.433 1021.64 980.811 1021.32 981.946 1020.67C983.08 1019.97 983.999 1019.08 984.702 1018C985.458 1016.86 986.052 1015.67 986.485 1014.43C986.917 1013.19 987.241 1012.03 987.457 1010.95H989.322Z" fill="#C09A68"/>
<path d="M941.907 993.924V995.545C940.178 995.599 938.854 995.815 937.935 996.193C937.071 996.518 936.503 997.166 936.233 998.139C935.963 999.057 935.828 1000.52 935.828 1002.52V1042.72C935.828 1044.66 935.963 1046.12 936.233 1047.1C936.558 1048.07 937.152 1048.72 938.017 1049.04C938.881 1049.36 940.178 1049.58 941.907 1049.69V1051.31C940.448 1051.2 938.611 1051.15 936.395 1051.15C934.18 1051.09 931.937 1051.07 929.668 1051.07C927.02 1051.07 924.562 1051.09 922.292 1051.15C920.076 1051.15 918.266 1051.2 916.861 1051.31V1049.69C918.59 1049.58 919.887 1049.36 920.752 1049.04C921.617 1048.72 922.184 1048.07 922.454 1047.1C922.778 1046.12 922.94 1044.66 922.94 1042.72V1002.52C922.94 1000.52 922.778 999.057 922.454 998.139C922.184 997.166 921.589 996.518 920.671 996.193C919.806 995.815 918.536 995.599 916.861 995.545V993.924C918.266 993.978 920.076 994.032 922.292 994.086C924.562 994.14 927.02 994.167 929.668 994.167C931.937 994.167 934.18 994.14 936.395 994.086C938.611 994.032 940.448 993.978 941.907 993.924Z" fill="#C09A68"/>
<path d="M883.927 993.924V995.545C882.089 995.599 880.684 995.815 879.712 996.193C878.793 996.518 878.172 997.166 877.848 998.139C877.523 999.057 877.361 1000.52 877.361 1002.52V1043.69C877.361 1045.37 877.469 1046.61 877.685 1047.42C877.956 1048.23 878.442 1048.77 879.144 1049.04C879.901 1049.31 881.009 1049.45 882.468 1049.45H886.439C888.277 1049.45 890.006 1049.01 891.627 1048.15C893.248 1047.28 894.707 1046.07 896.004 1044.5C897.301 1042.88 898.381 1040.96 899.246 1038.75C900.111 1036.53 900.759 1034.07 901.191 1031.37H903.056C902.893 1033.21 902.812 1035.59 902.812 1038.5C902.812 1039.75 902.839 1041.56 902.893 1043.93C902.947 1046.31 903.11 1048.77 903.38 1051.31C900.624 1051.2 897.517 1051.15 894.058 1051.15C890.6 1051.09 887.52 1051.07 884.818 1051.07C883.467 1051.07 881.738 1051.07 879.631 1051.07C877.523 1051.07 875.254 1051.09 872.822 1051.15C870.391 1051.15 867.932 1051.18 865.446 1051.23C862.961 1051.23 860.61 1051.26 858.395 1051.31V1049.69C860.124 1049.58 861.421 1049.36 862.285 1049.04C863.15 1048.72 863.717 1048.07 863.987 1047.1C864.311 1046.12 864.474 1044.66 864.474 1042.72V1002.52C864.474 1000.52 864.311 999.057 863.987 998.139C863.717 997.166 863.123 996.518 862.204 996.193C861.34 995.815 860.07 995.599 858.395 995.545V993.924C859.745 993.978 861.556 994.032 863.825 994.086C866.149 994.14 868.607 994.167 871.201 994.167C873.579 994.167 875.902 994.14 878.172 994.086C880.495 994.032 882.414 993.978 883.927 993.924Z" fill="#C09A68"/>
<path d="M841.471 993.924C841.255 996.301 841.093 998.598 840.985 1000.81C840.931 1003.03 840.904 1004.73 840.904 1005.92C840.904 1007 840.931 1008.03 840.985 1009C841.039 1009.97 841.093 1010.78 841.147 1011.43H839.283C838.742 1007.49 837.905 1004.38 836.77 1002.11C835.635 999.787 834.149 998.166 832.312 997.247C830.529 996.274 828.421 995.788 825.99 995.788H822.666C821.099 995.788 819.911 995.923 819.1 996.193C818.289 996.463 817.749 997.004 817.479 997.814C817.209 998.625 817.074 999.868 817.074 1001.54V1043.69C817.074 1045.37 817.209 1046.61 817.479 1047.42C817.749 1048.23 818.289 1048.77 819.1 1049.04C819.911 1049.31 821.099 1049.45 822.666 1049.45H826.638C829.07 1049.45 831.204 1048.93 833.041 1047.91C834.933 1046.83 836.527 1045.02 837.824 1042.48C839.174 1039.94 840.201 1036.5 840.904 1032.18H842.768C842.606 1033.91 842.525 1036.18 842.525 1038.99C842.525 1040.23 842.552 1041.99 842.606 1044.26C842.66 1046.53 842.822 1048.88 843.092 1051.31C840.336 1051.2 837.229 1051.15 833.771 1051.15C830.313 1051.09 827.232 1051.07 824.531 1051.07C823.18 1051.07 821.451 1051.07 819.343 1051.07C817.236 1051.07 814.966 1051.09 812.535 1051.15C810.103 1051.15 807.644 1051.18 805.159 1051.23C802.673 1051.23 800.322 1051.26 798.107 1051.31V1049.69C799.836 1049.58 801.133 1049.36 801.998 1049.04C802.862 1048.72 803.429 1048.07 803.7 1047.1C804.024 1046.12 804.186 1044.66 804.186 1042.72V1002.52C804.186 1000.52 804.024 999.057 803.7 998.139C803.429 997.166 802.835 996.518 801.917 996.193C801.052 995.815 799.782 995.599 798.107 995.545V993.924C800.322 993.978 802.673 994.032 805.159 994.086C807.644 994.086 810.103 994.113 812.535 994.167C814.966 994.167 817.236 994.167 819.343 994.167C821.451 994.167 823.18 994.167 824.531 994.167C827.016 994.167 829.826 994.167 832.96 994.167C836.148 994.113 838.985 994.032 841.471 993.924ZM828.827 1021.64C828.827 1021.64 828.827 1021.91 828.827 1022.45C828.827 1023 828.827 1023.27 828.827 1023.27H814.642C814.642 1023.27 814.642 1023 814.642 1022.45C814.642 1021.91 814.642 1021.64 814.642 1021.64H828.827ZM831.177 1010.95C830.961 1014.03 830.853 1016.38 830.853 1018C830.907 1019.62 830.934 1021.1 830.934 1022.45C830.934 1023.81 830.961 1025.29 831.015 1026.91C831.069 1028.53 831.204 1030.88 831.42 1033.96H829.556C829.286 1032.07 828.773 1030.32 828.016 1028.7C827.314 1027.08 826.287 1025.78 824.936 1024.81C823.585 1023.78 821.829 1023.27 819.667 1023.27V1021.64C821.288 1021.64 822.666 1021.32 823.801 1020.67C824.936 1019.97 825.855 1019.08 826.557 1018C827.314 1016.86 827.908 1015.67 828.34 1014.43C828.773 1013.19 829.097 1012.03 829.313 1010.95H831.177Z" fill="#C09A68"/>
<path d="M784.33 993.924C784.114 996.68 783.952 999.327 783.844 1001.87C783.79 1004.41 783.763 1006.35 783.763 1007.7C783.763 1008.89 783.79 1010.03 783.844 1011.11C783.898 1012.19 783.952 1013.11 784.006 1013.86H782.141C781.277 1009.32 780.169 1005.73 778.818 1003.08C777.521 1000.44 775.954 998.571 774.117 997.49C772.28 996.355 770.118 995.788 767.633 995.788H765.768V1042.07C765.768 1044.23 765.985 1045.85 766.417 1046.93C766.903 1048.01 767.768 1048.74 769.011 1049.12C770.253 1049.45 772.064 1049.64 774.441 1049.69V1051.31C772.766 1051.26 770.524 1051.2 767.714 1051.15C764.958 1051.09 762.067 1051.07 759.041 1051.07C756.069 1051.07 753.259 1051.09 750.611 1051.15C747.964 1051.2 745.829 1051.26 744.208 1051.31V1049.69C746.64 1049.64 748.477 1049.45 749.72 1049.12C750.962 1048.74 751.8 1048.01 752.232 1046.93C752.665 1045.85 752.881 1044.23 752.881 1042.07V995.788H751.098C748.612 995.788 746.45 996.355 744.613 997.49C742.776 998.571 741.209 1000.44 739.912 1003.08C738.615 1005.68 737.48 1009.27 736.508 1013.86H734.644C734.752 1013.11 734.806 1012.19 734.806 1011.11C734.86 1010.03 734.887 1008.89 734.887 1007.7C734.887 1006.35 734.833 1004.41 734.725 1001.87C734.671 999.327 734.535 996.68 734.319 993.924C736.805 993.978 739.507 994.032 742.425 994.086C745.397 994.14 748.369 994.167 751.341 994.167C754.313 994.167 756.988 994.167 759.365 994.167C761.797 994.167 764.472 994.167 767.39 994.167C770.362 994.167 773.334 994.14 776.306 994.086C779.278 994.032 781.952 993.978 784.33 993.924Z" fill="#C09A68"/>
<path d="M704.604 993.762L724.3 1044.5C725.057 1046.45 725.894 1047.8 726.813 1048.55C727.785 1049.26 728.65 1049.64 729.407 1049.69V1051.31C727.785 1051.2 725.867 1051.15 723.652 1051.15C721.49 1051.09 719.302 1051.07 717.086 1051.07C714.601 1051.07 712.25 1051.09 710.035 1051.15C707.819 1051.15 706.063 1051.2 704.766 1051.31V1049.69C707.522 1049.58 709.251 1049.12 709.953 1048.31C710.71 1047.45 710.548 1045.64 709.467 1042.88L695.688 1005.19L697.147 1003.08L684.827 1035.18C683.638 1038.15 682.908 1040.58 682.638 1042.48C682.422 1044.37 682.557 1045.83 683.043 1046.85C683.584 1047.88 684.421 1048.61 685.556 1049.04C686.745 1049.42 688.15 1049.64 689.771 1049.69V1051.31C687.988 1051.2 686.286 1051.15 684.665 1051.15C683.043 1051.09 681.395 1051.07 679.72 1051.07C678.531 1051.07 677.397 1051.09 676.316 1051.15C675.289 1051.15 674.371 1051.2 673.56 1051.31V1049.69C674.695 1049.47 675.857 1048.74 677.045 1047.5C678.234 1046.26 679.396 1044.15 680.531 1041.18L699.011 993.762C699.876 993.816 700.794 993.843 701.767 993.843C702.794 993.843 703.739 993.816 704.604 993.762ZM710.278 1027.97V1029.59H686.123L686.934 1027.97H710.278Z" fill="#C09A68"/>
<path d="M641.731 993.843V995.464C640.542 995.95 639.327 996.923 638.084 998.382C636.841 999.787 635.463 1001.95 633.95 1004.87L618.631 1035.18H614.821L595.854 1000.08C594.882 998.247 593.99 997.031 593.18 996.437C592.423 995.842 591.748 995.545 591.153 995.545V993.843C592.612 994.005 594.098 994.113 595.611 994.167C597.178 994.221 598.88 994.248 600.718 994.248C603.095 994.248 605.662 994.221 608.418 994.167C611.174 994.059 613.686 993.951 615.956 993.843V995.545C614.605 995.545 613.389 995.653 612.309 995.869C611.228 996.085 610.471 996.491 610.039 997.085C609.607 997.625 609.715 998.517 610.363 999.76L623.17 1024.4L620.657 1027.64L629.006 1010.86C631.005 1006.97 632.059 1003.92 632.167 1001.71C632.329 999.49 631.789 997.923 630.546 997.004C629.357 996.031 627.655 995.518 625.439 995.464V993.843C627.277 993.897 629.006 993.951 630.627 994.005C632.248 994.059 633.896 994.086 635.571 994.086C636.76 994.086 637.868 994.059 638.894 994.005C639.975 993.951 640.921 993.897 641.731 993.843ZM624.386 1022.37V1042.72C624.386 1044.66 624.521 1046.12 624.791 1047.1C625.115 1048.07 625.71 1048.72 626.574 1049.04C627.439 1049.37 628.736 1049.58 630.465 1049.69V1051.31C629.006 1051.2 627.114 1051.15 624.791 1051.15C622.521 1051.09 620.252 1051.07 617.982 1051.07C615.443 1051.07 613.038 1051.09 610.768 1051.15C608.499 1051.15 606.716 1051.2 605.419 1051.31V1049.69C607.148 1049.58 608.445 1049.37 609.31 1049.04C610.174 1048.72 610.741 1048.07 611.012 1047.1C611.336 1046.12 611.498 1044.66 611.498 1042.72V1026.1L618.55 1031.13L624.386 1022.37Z" fill="#C09A68"/>
<path d="M580.7 993.924C580.484 996.68 580.322 999.327 580.214 1001.87C580.16 1004.41 580.133 1006.35 580.133 1007.7C580.133 1008.89 580.16 1010.03 580.214 1011.11C580.268 1012.19 580.322 1013.11 580.376 1013.86H578.512C577.647 1009.32 576.539 1005.73 575.188 1003.08C573.891 1000.44 572.324 998.571 570.487 997.49C568.65 996.355 566.488 995.788 564.003 995.788H562.139V1042.07C562.139 1044.23 562.355 1045.85 562.787 1046.93C563.273 1048.01 564.138 1048.74 565.381 1049.12C566.624 1049.45 568.434 1049.64 570.811 1049.69V1051.31C569.136 1051.26 566.894 1051.2 564.084 1051.15C561.328 1051.09 558.437 1051.07 555.411 1051.07C552.439 1051.07 549.629 1051.09 546.981 1051.15C544.334 1051.2 542.199 1051.26 540.578 1051.31V1049.69C543.01 1049.64 544.847 1049.45 546.09 1049.12C547.333 1048.74 548.17 1048.01 548.602 1046.93C549.035 1045.85 549.251 1044.23 549.251 1042.07V995.788H547.468C544.982 995.788 542.821 996.355 540.983 997.49C539.146 998.571 537.579 1000.44 536.282 1003.08C534.985 1005.68 533.851 1009.27 532.878 1013.86H531.014C531.122 1013.11 531.176 1012.19 531.176 1011.11C531.23 1010.03 531.257 1008.89 531.257 1007.7C531.257 1006.35 531.203 1004.41 531.095 1001.87C531.041 999.327 530.906 996.68 530.689 993.924C533.175 993.978 535.877 994.032 538.795 994.086C541.767 994.14 544.739 994.167 547.711 994.167C550.683 994.167 553.358 994.167 555.735 994.167C558.167 994.167 560.842 994.167 563.76 994.167C566.732 994.167 569.704 994.14 572.676 994.086C575.648 994.032 578.322 993.978 580.7 993.924Z" fill="#C09A68"/>
<path d="M518.251 993.924V995.545C516.522 995.761 515.198 996.22 514.279 996.923C513.415 997.571 512.847 998.625 512.577 1000.08C512.307 1001.54 512.172 1003.6 512.172 1006.24V1027.72C512.172 1031.24 511.929 1034.45 511.442 1037.37C510.956 1040.29 510.092 1042.8 508.849 1044.91C507.444 1047.23 505.39 1049.07 502.689 1050.42C499.987 1051.77 496.555 1052.45 492.395 1052.45C489.909 1052.45 487.369 1052.15 484.776 1051.55C482.182 1051.01 479.858 1049.96 477.805 1048.39C476.076 1046.93 474.752 1045.29 473.833 1043.45C472.915 1041.61 472.293 1039.45 471.969 1036.96C471.645 1034.42 471.483 1031.42 471.483 1027.97V1002.52C471.483 1000.52 471.321 999.057 470.996 998.139C470.726 997.166 470.159 996.518 469.294 996.193C468.43 995.815 467.133 995.599 465.404 995.545V993.924C466.754 993.978 468.565 994.032 470.834 994.086C473.158 994.14 475.562 994.167 478.048 994.167C480.534 994.167 482.911 994.14 485.181 994.086C487.504 994.032 489.423 993.978 490.936 993.924V995.545C489.098 995.599 487.694 995.815 486.721 996.193C485.802 996.518 485.181 997.166 484.857 998.139C484.532 999.057 484.37 1000.52 484.37 1002.52V1033.07C484.37 1035.77 484.532 1038.18 484.857 1040.29C485.235 1042.34 485.829 1044.07 486.64 1045.47C487.504 1046.83 488.666 1047.85 490.125 1048.55C491.584 1049.26 493.394 1049.61 495.556 1049.61C499.338 1049.61 502.283 1048.72 504.391 1046.93C506.552 1045.15 508.065 1042.69 508.93 1039.56C509.848 1036.37 510.308 1032.72 510.308 1028.62V1007.22C510.308 1004.24 510.119 1001.98 509.74 1000.41C509.362 998.787 508.606 997.625 507.471 996.923C506.39 996.22 504.715 995.761 502.445 995.545V993.924C503.472 993.978 504.823 994.032 506.498 994.086C508.173 994.14 509.74 994.167 511.199 994.167C512.496 994.167 513.766 994.14 515.009 994.086C516.306 994.032 517.386 993.978 518.251 993.924Z" fill="#C09A68"/>
<path d="M430.713 993.762L450.41 1044.5C451.166 1046.45 452.004 1047.8 452.922 1048.55C453.895 1049.26 454.759 1049.64 455.516 1049.69V1051.31C453.895 1051.2 451.977 1051.15 449.761 1051.15C447.6 1051.09 445.411 1051.07 443.196 1051.07C440.71 1051.07 438.359 1051.09 436.144 1051.15C433.928 1051.15 432.172 1051.2 430.875 1051.31V1049.69C433.631 1049.58 435.36 1049.12 436.063 1048.31C436.819 1047.45 436.657 1045.64 435.577 1042.88L421.797 1005.19L423.256 1003.08L410.936 1035.18C409.747 1038.15 409.018 1040.58 408.748 1042.48C408.531 1044.37 408.666 1045.83 409.153 1046.85C409.693 1047.88 410.531 1048.61 411.665 1049.04C412.854 1049.42 414.259 1049.64 415.88 1049.69V1051.31C414.097 1051.2 412.395 1051.15 410.774 1051.15C409.153 1051.09 407.505 1051.07 405.83 1051.07C404.641 1051.07 403.506 1051.09 402.425 1051.15C401.399 1051.15 400.48 1051.2 399.669 1051.31V1049.69C400.804 1049.47 401.966 1048.74 403.155 1047.5C404.344 1046.26 405.505 1044.15 406.64 1041.18L425.121 993.762C425.985 993.816 426.904 993.843 427.876 993.843C428.903 993.843 429.849 993.816 430.713 993.762ZM436.387 1027.97V1029.59H412.233L413.043 1027.97H436.387Z" fill="#C09A68"/>
<path d="M386.718 993.924C386.501 996.301 386.339 998.598 386.231 1000.81C386.177 1003.03 386.15 1004.73 386.15 1005.92C386.15 1007 386.177 1008.03 386.231 1009C386.285 1009.97 386.339 1010.78 386.393 1011.43H384.529C383.989 1007.49 383.151 1004.38 382.016 1002.11C380.882 999.787 379.396 998.166 377.558 997.247C375.775 996.274 373.668 995.788 371.236 995.788H367.913C366.346 995.788 365.157 995.923 364.347 996.193C363.536 996.463 362.996 997.004 362.726 997.814C362.455 998.625 362.32 999.868 362.32 1001.54V1043.69C362.32 1045.37 362.455 1046.61 362.726 1047.42C362.996 1048.23 363.536 1048.77 364.347 1049.04C365.157 1049.31 366.346 1049.45 367.913 1049.45H371.885C374.316 1049.45 376.451 1048.93 378.288 1047.91C380.179 1046.83 381.773 1045.02 383.07 1042.48C384.421 1039.94 385.448 1036.5 386.15 1032.18H388.015C387.852 1033.91 387.771 1036.18 387.771 1038.99C387.771 1040.23 387.798 1041.99 387.852 1044.26C387.906 1046.53 388.069 1048.88 388.339 1051.31C385.583 1051.2 382.476 1051.15 379.017 1051.15C375.559 1051.09 372.479 1051.07 369.777 1051.07C368.426 1051.07 366.697 1051.07 364.59 1051.07C362.482 1051.07 360.213 1051.09 357.781 1051.15C355.35 1051.15 352.891 1051.18 350.405 1051.23C347.92 1051.23 345.569 1051.26 343.354 1051.31V1049.69C345.083 1049.58 346.38 1049.36 347.244 1049.04C348.109 1048.72 348.676 1048.07 348.946 1047.1C349.27 1046.12 349.433 1044.66 349.433 1042.72V1002.52C349.433 1000.52 349.27 999.057 348.946 998.139C348.676 997.166 348.082 996.518 347.163 996.193C346.298 995.815 345.029 995.599 343.354 995.545V993.924C345.569 993.978 347.92 994.032 350.405 994.086C352.891 994.086 355.35 994.113 357.781 994.167C360.213 994.167 362.482 994.167 364.59 994.167C366.697 994.167 368.426 994.167 369.777 994.167C372.263 994.167 375.073 994.167 378.207 994.167C381.395 994.113 384.232 994.032 386.718 993.924ZM374.073 1021.64C374.073 1021.64 374.073 1021.91 374.073 1022.45C374.073 1023 374.073 1023.27 374.073 1023.27H359.889C359.889 1023.27 359.889 1023 359.889 1022.45C359.889 1021.91 359.889 1021.64 359.889 1021.64H374.073ZM376.424 1010.95C376.208 1014.03 376.1 1016.38 376.1 1018C376.154 1019.62 376.181 1021.1 376.181 1022.45C376.181 1023.81 376.208 1025.29 376.262 1026.91C376.316 1028.53 376.451 1030.88 376.667 1033.96H374.803C374.532 1032.07 374.019 1030.32 373.263 1028.7C372.56 1027.08 371.533 1025.78 370.183 1024.81C368.832 1023.78 367.075 1023.27 364.914 1023.27V1021.64C366.535 1021.64 367.913 1021.32 369.048 1020.67C370.183 1019.97 371.101 1019.08 371.804 1018C372.56 1016.86 373.155 1015.67 373.587 1014.43C374.019 1013.19 374.343 1012.03 374.559 1010.95H376.424Z" fill="#C09A68"/>
<path d="M280.217 993.924C281.622 993.978 283.459 994.032 285.728 994.086C287.998 994.14 290.268 994.167 292.537 994.167C295.131 994.167 297.643 994.14 300.075 994.086C302.507 994.032 304.236 994.005 305.263 994.005C311.963 994.005 316.961 995.194 320.258 997.571C323.608 999.949 325.283 1003 325.283 1006.73C325.283 1008.62 324.716 1010.54 323.581 1012.49C322.446 1014.43 320.69 1016.16 318.312 1017.67C315.935 1019.19 312.855 1020.29 309.072 1021V1021.16C314.152 1021.54 318.177 1022.45 321.149 1023.91C324.121 1025.37 326.256 1027.13 327.553 1029.18C328.849 1031.24 329.498 1033.37 329.498 1035.59C329.498 1038.99 328.606 1041.85 326.823 1044.18C325.04 1046.5 322.473 1048.28 319.123 1049.53C315.773 1050.72 311.774 1051.31 307.127 1051.31C305.83 1051.31 303.966 1051.28 301.534 1051.23C299.102 1051.12 296.158 1051.07 292.699 1051.07C290.322 1051.07 287.998 1051.09 285.728 1051.15C283.459 1051.15 281.622 1051.2 280.217 1051.31V1049.69C281.946 1049.58 283.243 1049.36 284.107 1049.04C284.972 1048.72 285.539 1048.07 285.81 1047.1C286.134 1046.12 286.296 1044.66 286.296 1042.72V1002.52C286.296 1000.52 286.134 999.057 285.81 998.139C285.539 997.166 284.945 996.518 284.026 996.193C283.162 995.815 281.892 995.599 280.217 995.545V993.924ZM304.209 995.545C302.101 995.545 300.724 996.004 300.075 996.923C299.481 997.841 299.184 999.706 299.184 1002.52V1042.72C299.184 1044.61 299.319 1046.04 299.589 1047.01C299.913 1047.99 300.453 1048.64 301.21 1048.96C302.02 1049.28 303.209 1049.45 304.776 1049.45C308.667 1049.45 311.504 1048.23 313.287 1045.8C315.124 1043.31 316.043 1039.8 316.043 1035.26C316.043 1031.1 314.989 1027.89 312.882 1025.62C310.828 1023.35 307.397 1022.21 302.588 1022.21H295.698C295.698 1022.21 295.698 1022 295.698 1021.56C295.698 1021.08 295.698 1020.83 295.698 1020.83H302.669C305.209 1020.83 307.154 1020.24 308.505 1019.05C309.856 1017.81 310.801 1016.19 311.342 1014.19C311.882 1012.13 312.152 1009.95 312.152 1007.62C312.152 1003.62 311.531 1000.62 310.288 998.625C309.045 996.572 307.019 995.545 304.209 995.545Z" fill="#C09A68"/>
<path d="M1071.08 1099.07C1071.08 1101.48 1070.69 1103.7 1069.93 1105.72C1069.17 1107.73 1068.09 1109.46 1066.69 1110.91C1065.3 1112.36 1063.62 1113.5 1061.66 1114.3C1059.71 1115.1 1057.56 1115.5 1055.19 1115.5C1052.82 1115.5 1050.67 1115.1 1048.72 1114.3C1046.77 1113.5 1045.1 1112.36 1043.71 1110.91C1042.31 1109.46 1041.23 1107.73 1040.47 1105.72C1039.71 1103.7 1039.32 1101.48 1039.32 1099.07C1039.32 1096.66 1039.71 1094.45 1040.47 1092.44C1041.23 1090.42 1042.31 1088.68 1043.71 1087.23C1045.1 1085.76 1046.77 1084.62 1048.72 1083.81C1050.67 1083 1052.82 1082.6 1055.19 1082.6C1057.56 1082.6 1059.71 1083 1061.66 1083.81C1063.62 1084.62 1065.3 1085.76 1066.69 1087.23C1068.09 1088.68 1069.17 1090.42 1069.93 1092.44C1070.69 1094.45 1071.08 1096.66 1071.08 1099.07ZM1066.6 1099.07C1066.6 1097.09 1066.34 1095.32 1065.8 1093.74C1065.26 1092.17 1064.49 1090.84 1063.5 1089.77C1062.51 1088.67 1061.32 1087.83 1059.91 1087.25C1058.5 1086.66 1056.93 1086.37 1055.19 1086.37C1053.47 1086.37 1051.9 1086.66 1050.49 1087.25C1049.08 1087.83 1047.88 1088.67 1046.87 1089.77C1045.89 1090.84 1045.12 1092.17 1044.58 1093.74C1044.04 1095.32 1043.77 1097.09 1043.77 1099.07C1043.77 1101.05 1044.04 1102.82 1044.58 1104.39C1045.12 1105.95 1045.89 1107.28 1046.87 1108.37C1047.88 1109.45 1049.08 1110.28 1050.49 1110.87C1051.9 1111.44 1053.47 1111.72 1055.19 1111.72C1056.93 1111.72 1058.5 1111.44 1059.91 1110.87C1061.32 1110.28 1062.51 1109.45 1063.5 1108.37C1064.49 1107.28 1065.26 1105.95 1065.8 1104.39C1066.34 1102.82 1066.6 1101.05 1066.6 1099.07Z" fill="#C09A68"/>
<path d="M1019.16 1115.16H1014.8V1082.96H1019.16V1115.16Z" fill="#C09A68"/>
<path d="M994.584 1099.07C994.584 1101.48 994.202 1103.68 993.438 1105.65C992.674 1107.63 991.595 1109.32 990.202 1110.73C988.809 1112.14 987.131 1113.23 985.169 1114.01C983.221 1114.78 981.064 1115.16 978.697 1115.16H966.675V1082.96H978.697C981.064 1082.96 983.221 1083.35 985.169 1084.13C987.131 1084.89 988.809 1085.98 990.202 1087.41C991.595 1088.81 992.674 1090.51 993.438 1092.48C994.202 1094.46 994.584 1096.66 994.584 1099.07ZM990.112 1099.07C990.112 1097.09 989.843 1095.32 989.303 1093.77C988.764 1092.21 988 1090.89 987.011 1089.81C986.023 1088.73 984.824 1087.91 983.416 1087.34C982.008 1086.77 980.435 1086.48 978.697 1086.48H971.034V1111.63H978.697C980.435 1111.63 982.008 1111.35 983.416 1110.78C984.824 1110.21 986.023 1109.39 987.011 1108.33C988 1107.25 988.764 1105.93 989.303 1104.37C989.843 1102.81 990.112 1101.05 990.112 1099.07Z" fill="#C09A68"/>
<path d="M932.121 1111.7C933.454 1111.7 934.645 1111.47 935.694 1111.02C936.743 1110.57 937.627 1109.94 938.346 1109.14C939.08 1108.33 939.634 1107.36 940.008 1106.24C940.398 1105.11 940.593 1103.88 940.593 1102.53V1082.96H944.93V1102.53C944.93 1104.39 944.63 1106.11 944.031 1107.7C943.447 1109.29 942.6 1110.66 941.492 1111.83C940.398 1112.99 939.057 1113.89 937.469 1114.55C935.881 1115.21 934.099 1115.54 932.121 1115.54C930.144 1115.54 928.361 1115.21 926.773 1114.55C925.185 1113.89 923.837 1112.99 922.728 1111.83C921.62 1110.66 920.766 1109.29 920.166 1107.7C919.582 1106.11 919.29 1104.39 919.29 1102.53V1082.96H923.627V1102.51C923.627 1103.86 923.814 1105.09 924.189 1106.21C924.578 1107.34 925.133 1108.3 925.852 1109.11C926.586 1109.92 927.477 1110.56 928.526 1111.02C929.589 1111.47 930.788 1111.7 932.121 1111.7Z" fill="#C09A68"/>
<path d="M900.984 1086.62H890.557V1115.16H886.22V1086.62H875.771V1082.96H900.984V1086.62Z" fill="#C09A68"/>
<path d="M857.346 1087.99C857.211 1088.22 857.061 1088.39 856.897 1088.51C856.747 1088.61 856.56 1088.66 856.335 1088.66C856.08 1088.66 855.781 1088.54 855.436 1088.28C855.091 1088.03 854.657 1087.75 854.133 1087.45C853.623 1087.14 853.002 1086.85 852.268 1086.6C851.549 1086.34 850.672 1086.22 849.638 1086.22C848.665 1086.22 847.803 1086.35 847.054 1086.62C846.32 1086.87 845.699 1087.23 845.189 1087.68C844.695 1088.13 844.32 1088.66 844.066 1089.27C843.811 1089.87 843.684 1090.52 843.684 1091.23C843.684 1092.13 843.901 1092.87 844.335 1093.47C844.785 1094.06 845.369 1094.56 846.088 1094.98C846.822 1095.4 847.646 1095.77 848.56 1096.08C849.489 1096.38 850.432 1096.69 851.391 1097.02C852.365 1097.35 853.309 1097.73 854.223 1098.15C855.151 1098.55 855.975 1099.07 856.694 1099.7C857.428 1100.33 858.013 1101.1 858.447 1102.01C858.897 1102.93 859.121 1104.05 859.121 1105.38C859.121 1106.79 858.882 1108.12 858.402 1109.36C857.923 1110.59 857.219 1111.66 856.29 1112.57C855.376 1113.49 854.245 1114.21 852.897 1114.73C851.564 1115.26 850.043 1115.52 848.335 1115.52C846.238 1115.52 844.335 1115.14 842.627 1114.39C840.92 1113.63 839.459 1112.6 838.246 1111.32L839.504 1109.25C839.624 1109.08 839.766 1108.95 839.931 1108.84C840.111 1108.72 840.305 1108.66 840.515 1108.66C840.71 1108.66 840.927 1108.75 841.167 1108.91C841.422 1109.06 841.706 1109.26 842.021 1109.5C842.335 1109.74 842.695 1110 843.099 1110.28C843.504 1110.57 843.961 1110.83 844.47 1111.07C844.994 1111.31 845.586 1111.51 846.245 1111.68C846.904 1111.82 847.646 1111.9 848.47 1111.9C849.504 1111.9 850.425 1111.76 851.234 1111.47C852.043 1111.19 852.725 1110.79 853.279 1110.28C853.848 1109.76 854.283 1109.14 854.582 1108.42C854.882 1107.7 855.032 1106.9 855.032 1106.01C855.032 1105.04 854.807 1104.24 854.357 1103.63C853.923 1103 853.346 1102.48 852.627 1102.06C851.908 1101.64 851.084 1101.29 850.155 1101C849.227 1100.7 848.283 1100.4 847.324 1100.1C846.365 1099.79 845.421 1099.43 844.493 1099.02C843.564 1098.62 842.74 1098.1 842.021 1097.45C841.302 1096.81 840.717 1096.01 840.268 1095.05C839.834 1094.07 839.616 1092.87 839.616 1091.45C839.616 1090.31 839.834 1089.21 840.268 1088.15C840.717 1087.08 841.362 1086.14 842.201 1085.32C843.054 1084.49 844.096 1083.83 845.324 1083.34C846.567 1082.84 847.991 1082.6 849.594 1082.6C851.391 1082.6 853.024 1082.88 854.492 1083.45C855.975 1084.02 857.279 1084.84 858.402 1085.92L857.346 1087.99Z" fill="#C09A68"/>
<path d="M782.256 1098.55C783.514 1098.55 784.623 1098.4 785.582 1098.1C786.555 1097.79 787.364 1097.35 788.009 1096.8C788.668 1096.23 789.162 1095.56 789.492 1094.78C789.821 1094 789.986 1093.14 789.986 1092.19C789.986 1090.28 789.357 1088.83 788.098 1087.86C786.84 1086.88 784.953 1086.39 782.436 1086.39H777.672V1098.55H782.256ZM797.132 1115.16H793.267C792.473 1115.16 791.889 1114.85 791.514 1114.24L783.155 1102.73C782.9 1102.37 782.623 1102.12 782.323 1101.97C782.039 1101.8 781.589 1101.72 780.975 1101.72H777.672V1115.16H773.335V1082.96H782.436C784.473 1082.96 786.233 1083.17 787.716 1083.59C789.2 1083.99 790.421 1084.58 791.379 1085.36C792.353 1086.14 793.072 1087.08 793.537 1088.19C794.001 1089.29 794.233 1090.51 794.233 1091.88C794.233 1093.02 794.053 1094.08 793.694 1095.07C793.334 1096.06 792.81 1096.95 792.121 1097.74C791.447 1098.52 790.615 1099.19 789.627 1099.74C788.653 1100.3 787.544 1100.72 786.301 1101C786.855 1101.32 787.335 1101.77 787.739 1102.37L797.132 1115.16Z" fill="#C09A68"/>
<path d="M751.166 1115.16H746.807V1082.96H751.166V1115.16Z" fill="#C09A68"/>
<path d="M719.56 1103.2L714.504 1090.1C714.354 1089.71 714.197 1089.26 714.032 1088.75C713.867 1088.23 713.71 1087.68 713.56 1087.09C713.246 1088.31 712.923 1089.32 712.594 1090.13L707.538 1103.2H719.56ZM728.638 1115.16H725.268C724.878 1115.16 724.563 1115.06 724.324 1114.87C724.084 1114.67 723.904 1114.42 723.784 1114.12L720.773 1106.35H706.324L703.313 1114.12C703.223 1114.39 703.051 1114.63 702.796 1114.84C702.542 1115.05 702.227 1115.16 701.853 1115.16H698.482L711.358 1082.96H715.762L728.638 1115.16Z" fill="#C09A68"/>
<path d="M680.295 1082.96V1115.16H675.936V1100.51H658.565V1115.16H654.206V1082.96H658.565V1097.32H675.936V1082.96H680.295Z" fill="#C09A68"/>
<path d="M589.589 1099.29C588.001 1100.13 586.803 1101.15 585.994 1102.35C585.2 1103.55 584.803 1104.85 584.803 1106.26C584.803 1107.23 584.982 1108.09 585.342 1108.84C585.701 1109.58 586.173 1110.2 586.758 1110.71C587.342 1111.22 588.009 1111.61 588.758 1111.88C589.507 1112.13 590.271 1112.26 591.05 1112.26C592.727 1112.26 594.233 1111.95 595.566 1111.34C596.915 1110.72 598.091 1109.9 599.094 1108.87L589.589 1099.29ZM610.352 1115.16H606.465C606.03 1115.16 605.678 1115.11 605.409 1115C605.139 1114.9 604.847 1114.68 604.532 1114.35L601.274 1111.07C599.866 1112.43 598.24 1113.52 596.398 1114.33C594.57 1115.12 592.555 1115.52 590.353 1115.52C589.155 1115.52 587.979 1115.32 586.825 1114.91C585.687 1114.51 584.66 1113.92 583.746 1113.16C582.833 1112.38 582.099 1111.44 581.544 1110.33C580.99 1109.22 580.713 1107.97 580.713 1106.57C580.713 1105.53 580.885 1104.54 581.23 1103.61C581.589 1102.66 582.084 1101.8 582.713 1101C583.342 1100.21 584.084 1099.5 584.937 1098.87C585.791 1098.24 586.728 1097.7 587.746 1097.25C586.833 1096.08 586.158 1094.96 585.724 1093.88C585.29 1092.78 585.072 1091.65 585.072 1090.48C585.072 1089.39 585.267 1088.37 585.657 1087.41C586.061 1086.45 586.638 1085.62 587.387 1084.91C588.136 1084.19 589.042 1083.63 590.106 1083.23C591.184 1082.81 592.39 1082.6 593.724 1082.6C594.907 1082.6 595.986 1082.79 596.96 1083.18C597.933 1083.56 598.772 1084.06 599.476 1084.69C600.18 1085.32 600.735 1086.05 601.139 1086.89C601.559 1087.71 601.798 1088.57 601.858 1089.47L599.364 1089.97C598.87 1090.09 598.503 1089.86 598.263 1089.27C598.158 1088.88 597.986 1088.48 597.746 1088.06C597.521 1087.64 597.222 1087.26 596.847 1086.91C596.488 1086.57 596.046 1086.28 595.521 1086.06C595.012 1085.83 594.413 1085.72 593.724 1085.72C592.975 1085.72 592.293 1085.84 591.679 1086.08C591.08 1086.32 590.563 1086.66 590.128 1087.09C589.709 1087.51 589.387 1088.01 589.162 1088.6C588.937 1089.17 588.825 1089.79 588.825 1090.46C588.825 1090.99 588.885 1091.49 589.005 1091.97C589.125 1092.45 589.312 1092.93 589.567 1093.43C589.836 1093.92 590.173 1094.42 590.578 1094.93C590.982 1095.44 591.469 1095.98 592.038 1096.55L601.296 1105.97C601.866 1104.95 602.323 1103.89 602.667 1102.8C603.012 1101.69 603.236 1100.59 603.341 1099.5C603.371 1099.21 603.461 1098.99 603.611 1098.82C603.761 1098.66 603.971 1098.57 604.24 1098.57H606.69C606.675 1100.3 606.405 1101.99 605.881 1103.65C605.356 1105.3 604.6 1106.85 603.611 1108.3L610.352 1115.16Z" fill="#C09A68"/>
<path d="M527.227 1099.65C528.471 1099.65 529.564 1099.49 530.508 1099.16C531.467 1098.83 532.269 1098.37 532.913 1097.79C533.572 1097.19 534.066 1096.48 534.396 1095.65C534.725 1094.83 534.89 1093.92 534.89 1092.93C534.89 1090.88 534.253 1089.28 532.98 1088.13C531.722 1086.97 529.804 1086.39 527.227 1086.39H522.059V1099.65H527.227ZM527.227 1082.96C529.265 1082.96 531.033 1083.2 532.531 1083.68C534.044 1084.14 535.295 1084.81 536.283 1085.68C537.272 1086.54 538.006 1087.59 538.486 1088.82C538.98 1090.05 539.227 1091.42 539.227 1092.93C539.227 1094.43 538.965 1095.8 538.441 1097.05C537.916 1098.29 537.145 1099.36 536.126 1100.26C535.122 1101.16 533.871 1101.86 532.373 1102.37C530.89 1102.87 529.175 1103.11 527.227 1103.11H522.059V1115.16H517.722V1082.96H527.227Z" fill="#C09A68"/>
<path d="M483.168 1111.7C484.501 1111.7 485.692 1111.47 486.741 1111.02C487.789 1110.57 488.673 1109.94 489.392 1109.14C490.126 1108.33 490.681 1107.36 491.055 1106.24C491.445 1105.11 491.639 1103.88 491.639 1102.53V1082.96H495.976V1102.53C495.976 1104.39 495.677 1106.11 495.077 1107.7C494.493 1109.29 493.647 1110.66 492.538 1111.83C491.445 1112.99 490.104 1113.89 488.516 1114.55C486.928 1115.21 485.145 1115.54 483.168 1115.54C481.19 1115.54 479.408 1115.21 477.82 1114.55C476.232 1113.89 474.883 1112.99 473.775 1111.83C472.666 1110.66 471.812 1109.29 471.213 1107.7C470.629 1106.11 470.337 1104.39 470.337 1102.53V1082.96H474.674V1102.51C474.674 1103.86 474.861 1105.09 475.235 1106.21C475.625 1107.34 476.179 1108.3 476.898 1109.11C477.632 1109.92 478.524 1110.56 479.572 1111.02C480.636 1111.47 481.834 1111.7 483.168 1111.7Z" fill="#C09A68"/>
<path d="M450.735 1111.61L450.713 1115.16H430.871V1082.96H450.713V1086.51H435.23V1097.2H447.769V1100.62H435.23V1111.61H450.735Z" fill="#C09A68"/>
<path d="M391.519 1097.07H393.159C393.728 1097.07 394.185 1097 394.53 1096.87C394.875 1096.72 395.189 1096.47 395.474 1096.13L406.192 1083.99C406.492 1083.6 406.807 1083.33 407.136 1083.18C407.466 1083.03 407.87 1082.96 408.35 1082.96H412.035L399.766 1096.82C399.466 1097.18 399.174 1097.48 398.889 1097.72C398.62 1097.95 398.328 1098.13 398.013 1098.28C398.417 1098.42 398.784 1098.62 399.114 1098.89C399.444 1099.14 399.766 1099.48 400.08 1099.9L412.889 1115.16H409.114C408.829 1115.16 408.582 1115.14 408.372 1115.11C408.177 1115.07 408.005 1115.01 407.855 1114.93C407.706 1114.84 407.571 1114.75 407.451 1114.64C407.346 1114.52 407.241 1114.39 407.136 1114.24L396.036 1101.45C395.736 1101.08 395.414 1100.81 395.069 1100.66C394.725 1100.5 394.2 1100.42 393.496 1100.42H391.519V1115.16H387.182V1082.96H391.519V1097.07Z" fill="#C09A68"/>
<path d="M359.935 1103.2L354.879 1090.1C354.73 1089.71 354.572 1089.26 354.407 1088.75C354.243 1088.23 354.085 1087.68 353.936 1087.09C353.621 1088.31 353.299 1089.32 352.969 1090.13L347.913 1103.2H359.935ZM369.014 1115.16H365.643C365.254 1115.16 364.939 1115.06 364.699 1114.87C364.46 1114.67 364.28 1114.42 364.16 1114.12L361.149 1106.35H346.7L343.689 1114.12C343.599 1114.39 343.427 1114.63 343.172 1114.84C342.917 1115.05 342.603 1115.16 342.228 1115.16H338.857L351.733 1082.96H356.138L369.014 1115.16Z" fill="#C09A68"/>
<path d="M320.669 1082.96V1115.16H316.849V1091.5C316.849 1091.18 316.856 1090.84 316.871 1090.48C316.901 1090.13 316.931 1089.76 316.961 1089.38L305.905 1109.52C305.561 1110.19 305.036 1110.53 304.332 1110.53H303.703C302.999 1110.53 302.475 1110.19 302.13 1109.52L290.85 1089.29C290.939 1090.09 290.984 1090.82 290.984 1091.5V1115.16H287.164V1082.96H290.378C290.767 1082.96 291.067 1082.99 291.277 1083.07C291.486 1083.14 291.689 1083.35 291.883 1083.7L303.006 1103.52C303.186 1103.88 303.359 1104.25 303.523 1104.64C303.703 1105.03 303.868 1105.43 304.018 1105.83C304.167 1105.43 304.325 1105.03 304.49 1104.64C304.654 1104.24 304.834 1103.86 305.029 1103.5L315.95 1083.7C316.13 1083.35 316.324 1083.14 316.534 1083.07C316.759 1082.99 317.066 1082.96 317.455 1082.96H320.669Z" fill="#C09A68"/>
<path d="M709.675 28.8127C881.809 44.7255 1008.55 196.077 992.765 366.866C976.976 537.656 824.634 663.209 652.5 647.296C597.037 642.168 546.288 622.979 503.499 593.61C509.299 597.487 515.244 601.174 521.33 604.658C559.246 627.167 602.636 641.811 649.464 646.14C818.066 661.727 967.381 537.683 982.968 369.08C998.554 200.478 874.51 51.1629 705.907 35.5765C560.255 22.1119 428.998 112.851 385.914 246.5C378.234 268.724 373.082 292.208 370.823 316.649C367.325 354.487 371.065 391.337 380.911 425.851C369.935 389.102 365.67 349.718 369.412 309.241C385.201 138.452 537.542 12.9001 709.675 28.8127Z" fill="url(#paint0_linear_2644_79)"/>
<path d="M694.695 208.155C715.812 174.506 751.676 136.794 777.28 157.539C798.484 174.718 795.133 199.478 780.386 222.685C790.842 216.151 800.823 214.859 809.634 220.973C850.317 249.202 778.821 309.956 743.607 330.66C765.616 329.339 809.634 330.66 820.198 360.395C839.022 413.379 789.826 484.62 777.28 497.835C743.607 533.308 670.585 575.312 639.944 529.552C624.599 506.634 643.398 436.152 683.832 388.48C696.707 348.521 720.208 296.351 745.287 260.1C742.353 262.367 739.366 264.529 736.344 266.564C710.108 284.233 691.886 325.813 690.785 337.928V320.087C696.067 305.77 707.292 281.898 733.703 262.339C766.716 237.891 804.231 196.923 775.3 166.788C746.369 136.654 698.048 202.47 680.881 252.688C670.437 283.24 651.949 332.033 638.367 367.216C651.654 360.576 676.923 353.523 688.29 349.561L672.958 358.413C664.4 361.306 651.088 367.33 635.069 375.744C632.138 383.303 629.528 389.991 627.399 395.414C610.673 447.175 563.61 551.63 533.641 583.073C492.704 626.023 462.992 636.595 440.543 626.023C410.977 608.582 417.434 540.785 471.576 486.602C511.365 446.782 571.125 403.393 623.337 375.057C627.327 363.589 631.148 352.397 634.805 341.684C650.329 296.215 662.902 259.387 672.958 246.743C652.709 265.465 596.512 307.725 521.756 330.66C502.466 336.579 496.812 337.929 460.279 346.447C390.337 362.754 303.576 383.101 309.81 452.242C312.782 485.204 363.455 499.681 385.838 485.053L373.196 494.531C353.388 500.258 311.263 499.817 301.226 452.242C288.681 392.773 368.72 364.654 393.664 358.413L394.166 358.286C504.646 330.66 542.732 321.137 586.463 297.622C630.7 273.834 668.996 248.725 690.785 214.365C692.07 212.339 693.372 210.263 694.695 208.155ZM620.292 383.763C576.49 408.269 519.396 446.476 481.48 486.602C424.037 547.393 422.936 604.219 440.543 615.452C451.328 626.024 486.102 629.459 538.923 558.626C571.562 514.857 598.393 446.059 620.292 383.763ZM785.316 339.969C782.252 341.036 776.152 342.926 764.221 346.258C735.829 354.187 709.254 369.108 689.487 391.589C688.091 395.53 687.225 398.158 686.969 399.12C684.856 407.05 676.479 435.723 673.618 435.723C673.618 428.285 675.566 417.47 679.045 404.574C644.19 451.913 631.381 512.722 648.528 529.552C682.862 563.251 738.325 522.283 770.017 490.567C801.71 458.85 827.461 398.72 809.634 360.395C804.911 350.243 796.005 343.82 785.316 339.969ZM388.528 483.037C387.686 483.763 386.786 484.433 385.838 485.053L388.528 483.037ZM803.031 225.598C765.856 206.761 714.831 324.837 695.121 376.355C713.733 358.217 755.032 342 782.472 339.017C761.248 332.426 734.15 335.066 718.516 338.59C764.075 309.736 844.76 246.743 803.031 225.598Z" fill="url(#paint1_linear_2644_79)"/>
<defs>
<linearGradient id="paint0_linear_2644_79" x1="709.676" y1="28.8127" x2="652.501" y2="647.296" gradientUnits="userSpaceOnUse">
<stop stop-color="#B78034"/>
<stop offset="0.504808" stop-color="#E8BC6F"/>
<stop offset="1" stop-color="#B78034"/>
</linearGradient>
<linearGradient id="paint1_linear_2644_79" x1="562.17" y1="151.606" x2="562.17" y2="629.827" gradientUnits="userSpaceOnUse">
<stop stop-color="#B78034"/>
<stop offset="0.504808" stop-color="#E8BC6F"/>
<stop offset="1" stop-color="#B78034"/>
</linearGradient>
</defs>
</svg>
